<!-- Generator: Adobe Illustrator 25.0.0, SVG Export Plug-In  -->
<svg version="1.1" xmlns="http://www.w3.org/2000/svg" xmlns:xlink="http://www.w3.org/1999/xlink" x="0px" y="0px" width="1668px"
	 height="1123.4px" viewBox="0 0 1668 1123.4" style="overflow:visible;enable-background:new 0 0 1668 1123.4;"
	 xml:space="preserve">
<style type="text/css">
	.st0{fill:#19AC79;stroke:#F7D921;stroke-width:15;stroke-linejoin:round;stroke-miterlimit:10;}
	.st1{fill:#19AC79;stroke:#F7D921;stroke-width:6;stroke-linejoin:round;stroke-miterlimit:10;}
	.st2{fill:#19AC79;stroke:#F7D921;stroke-width:12;stroke-miterlimit:10;}
	.st3{fill:#FFFFFF;}
</style>
<defs>
</defs>
<rect x="180.7" y="7.5" class="st0" width="1337.1" height="44.3"/>
<g>
	<path class="st1" d="M243.9,7.5l-46.3,258.6l43.7,342.4l140.1,270l892,16.7l157.1-338.1l60.4-304.7L1389.4,7.5H243.9z
		 M1160.2,226.5c0,0-8.8-43.9-52-62.4c-43.1-18.4-74.6-25.9-110.4,7l-0.2,0.4c4.3-0.8,64.6-11.5,103.4,31.8
		c40.2,44.9,46.3,69.7,37,134.4c0,0-3-73.6-42-108.8s-94.2-24.3-94.2-24.3s95.8,9.6,103.3,86.1c0,0-43.9-80.5-116.7-51.3
		c0,0,0,0,0-0.1c-0.2,0.1-0.4,0.3-0.6,0.4c-0.5,0.8-1,1.6-1.6,2.4c-1.7,2-3.9,3.6-6.3,4.6c-2.5,2.9-4.8,6.3-6.3,10.4
		c0,0,76.3-39.1,101.8,42.5c0.1,0.2,0.3,0.3,0.4,0.5c0.3,0.4,0.3,0.9,0.1,1.3c0.3,1,0.6,2,0.9,3.1c0,0-0.7-0.9-2.1-2.4
		c-0.2,0-0.3-0.2-0.5-0.3c-0.8-0.9-1.5-1.8-2.3-2.7c-5.2-5.4-14-13.8-25-20.5c-5.4-3.2-11.2-5.9-17.1-8c-0.7-0.3-1.4-0.5-2.2-0.7
		c-3.9-1.1-8-1.8-12.1-2c0,0-0.1,0-0.1,0c-4.9,0.2-9.8,1.7-14.5,3c-4.4,1.3-8.8,2.8-13,4.9c-7.4,5-14.6,12.5-21.5,23.4
		c-0.5,1.3-1,2.5-1.4,3.8c10.3-4.8,80.6-34,124.8,45.4c0,0,22.8,38.7,0,123.5c0,0,4.4-18.3,3.9-42.4c-0.1-0.1-0.1-0.3-0.1-0.5
		c0-5.5-0.4-10.9-1.1-16.3c-0.3-2.7-0.7-5.3-1.1-7.9c-4.2-24.1-14.8-49.8-38.7-67.9c-17.8-13.5-33-17.9-45.6-17.4
		c-0.7,0-1.4,0.1-2.2,0.1c-13.5,1.1-23.8,7.6-30.8,14.1c-0.1,0.1-0.1,0.2-0.2,0.2c-2.4,2.6-4.8,5.3-7.3,7.9
		c-2.4,3.1-3.6,5.2-3.6,5.2s40.4-23.8,69.4-1.1c0.1,0,0.3,0,0.4,0c0.7,0.1,1,0.6,1.1,1.1c1.1,0.9,2.2,2,3.3,3.1
		c0,0-7.4-1.8-16.8-2.1c-0.9,0.1-1.8,0.2-2.6,0.3c-4.3,0.5-8.6,1.1-12.9,2c-3.8,0.8-7.5,1.9-10.8,3.9c-5.7,3.5-10.1,9-12.1,15.5
		c5.7-1.4,64.9-13.8,79.9,58.1c0.2,0.3,0.4,0.7,0.6,1c0.3,0.5,0.2,1-0.2,1.3c0.3,1.5,0.6,3,0.8,4.6c0,0-0.8-1.7-2.3-4.4
		c-0.1-0.1-0.2-0.2-0.3-0.4c-3-5.1-6.4-9.9-10.2-14.5c-3.4-4-7.1-7.8-11-11.3c-2.9-2.6-6-5.1-9.3-7.3c-3.4-2-7-3.8-10.8-5.2
		c-3.1-0.9-6.2-1.5-9.4-2c-0.7-0.1-1.3-0.2-2-0.3l-14.6-0.2c8,2.5,59.6,21,64.4,76.1c0,0.1,0.1,0.1,0.1,0.2c0.1,0.3,0.1,0.7,0,0.9
		c0.1,1,0.1,2,0.2,3c0,0-0.4-0.8-1.2-2.2c-0.4,0-0.7-0.1-0.9-0.6c-0.9-2.1-2-4.2-3.1-6.2c-2.1-3.4-4.9-7.5-8.2-11.9
		c-3.8-4.6-7.9-8.9-12.2-13.1c-4.6-4.4-9.3-8.8-14.3-12.7c-9.1-7.3-20.6-11.4-32.2-11.7c-1.2,0-2.4,0-3.6,0.2c0,0,36.1,14.5,42.6,59
		c0.5,0.8,1,1.6,1.5,2.4c0.5,0.9-0.3,1.7-1,1.7c0.2,1.6,0.3,3.1,0.4,4.8c0,0-5.1-10.6-14.3-21.8c-3.2-3.6-6.5-7.2-10-10.6
		c-11-10-25.2-18-41.9-15.8c0,0,39.4,21.9,32.4,72.7c0.3,1,0.5,2.1,0.8,3.1c0.2,1-0.8,1.6-1.5,1.3c-0.1,0.8-0.3,1.5-0.5,2.3
		c0,0-8.6-41.8-28.1-58.8c-0.1-0.1-0.3-0.2-0.4-0.3c-3.2-2.2-6.5-4-10-5.7c-1.1-0.3-2.3-0.6-3.4-0.8c5.9,16.2,9.1,35.8,6.2,58.4
		c-0.1,2.9-0.4,5.9-1,8.7c-0.1,0.7-0.3,1.4-0.5,2.1c-1.1,6.5-4,18.2-11.6,31.8c0,0-6.4,14.1,0,34c0,0,5.4,5.4,1.4,11.9
		c-0.2,0.5-0.5,1-0.7,1.5c-0.2,0.3-0.5,0.5-0.8,0.5c-1.4,1.6-3.5,3.2-6.4,4.8l-36.7,18.6l0,0c0,0,0,0,0,0s-1.6,0.4-3.4,0.7
		c0.5,2.1,0.8,6.4-1.8,11.9c-0.5,1.3-1.2,2.6-2,3.8c-0.9,1.3-1.8,2.5-2.7,3.8c-0.6,0.8-1.2,1.7-1.9,2.4c-0.3,0.6-1,1.3-2.2,1.4
		c-0.3,0.1-0.7,0-1-0.1c-0.7-0.1-1.5-0.4-2.5-0.9c0,0-0.1,1.1-0.6,2.2c0.8,2.8,1.6,11.7-7.2,36.3c-6.8,18.8-4.4,36-1.2,47
		c0.6,2,1.3,3.9,1.9,5.8c0.9,2.4,1.7,4.2,2.2,5.3c28.3-6.6,24.7,5.4,24.7,5.4c0.1,0.3,0.2,0.5,0.3,0.7c0,0,0,0,0,0
		c0-0.5,0.1-3.7-1.1-4.9c0,0,6.3-3,13,5.8c0,0-7.6-2.2-11.8-0.9c1,0.3,0.9,2-0.2,2.2c-0.1,0.2-0.2,0.3-0.2,0.3
		c15.1-1,30.7-4.6,39.2,7.7c0,0,0.1,0.3,0.2,0.8c0.4,0,16.1,2.1,12.8,16.5c0,0-5.5-8.5-13.2-7c-0.1,0.1-0.1,0.1-0.2,0.2
		c-1.2,1.9-3.5,3.2-7.7,3c-0.2,0-0.4,0-0.6,0c-0.5,0-1,0-1.5,0c-1.7,0-3.4-0.3-5-0.7c-6.2-1-9.7-2.5-11.7-3.7c0,0,0,0,0,0l0,0
		c-0.5-0.3-1-0.6-1.3-0.9c-0.2-0.1-0.3-0.2-0.5-0.4c-2-0.7-4-1.4-6.1-2c-1.2-0.3-2.6-0.6-4.1-0.9c0,0,0,0,0,0l0,0
		c-13.7-2.6-39.7-4.3-67.1,10.5c0,0-3.2,1.5-7.9,4.8v0c0,0,0,0,0,0c-2.7,1.9-5.9,4.4-9.4,7.6v0c0,0,0,0,0,0
		c-4.7,4.3-9.7,9.8-14.4,16.6c0,0-5.8,14.8-25.2,9.4l-0.2-0.2c-6.6,2-11.5,11.6-11.5,11.6c-1.4-7.5,2-14.1,5.3-18.5l-0.5-0.5
		c0,0-1.2-7.8,1.7-9.4c0,0,0,0,0,0c-0.2,0-17.8,1.7-20.9-5.9c0,0-0.2-0.4-0.5-1.1c-4.3,0.4-10.8,2.9-17.9,11.6
		c0,0,0.8-17.3,16.3-23.1c1-4.6,4.7-9.3,14.3-11.5l-6.3,1c-0.3,0.3-0.6,0.6-0.9,0.9c-0.7,0.7-1.5,1.3-2.4,1.8
		c-1.8,1.1-3.7,1.9-5.8,2.3c-0.7,0.1-1.5,0.2-2.2,0.3c-6.7,1.3-10.2-1.9-10.2-1.9l-0.4-1.2c-4.3-0.2-13.9,0.3-19.7,8.5
		c0,0,0-15.9,16.2-18.8c0.2-4.4,3.4-3.3,3.4-3.3c-0.2-0.3-0.3-0.6-0.4-0.9c-0.3-0.4-0.4-1.1-0.1-1.5c0-0.2,0.1-0.3,0.1-0.5
		c-5.7-1-14.3,3.2-14.3,3.2c1.6-9.6,11.3-10.9,16.2-10.9c1.7-6.7,27.8-4.2,27.8-4.2c5.2,1,10,1.4,14.3,1.6l39.6-11.8
		c29.2-26.2,20.5-82.6,20.4-82.7c-1.5,0.1-3.7-0.7-6.4-4.2c0,0-6.6,0.5-8.4-8.9c0-0.2-0.1-0.4-0.1-0.6c-9.3-0.6-21.1-1.9-30.8-4.2
		c-1.4-0.3-2.6-1.2-3.5-2.3c-1.1-1.3-4.2-2.9-13.2-2.6c0,0-11.9,1.2-5.6-12.3c0,0,2.4-24.9-3.8-32.7c-6.2-7.8-5-3-9.8-14.2l1-0.2
		c0-0.1-0.1-0.3-0.1-0.4c-1-0.6-1.4-1-1.5-1.1l0,0c0,0-19.2-8.1-29.9-20.5c0,0-2-1.5-2.3,2.8c0,0-16.5-14.4-21-21.8
		c-0.2-0.3-0.4-0.6-0.6-1.1c-0.9,0.2-1.8,0.4-2.9,0.5c-18.7,2.6-21.3-9.3-21.3-9.3s-0.9-2.5,0-4.8c0,0-7.5,0.9-9.5,0.6
		c0,0-7.8,1.7-13.3-7.8c0,0-6.6,4-12.7-1.4c0,0-0.9-1.7-4.9,0.9c0,0-1.2,1.2-4.3,0.6c0,0-4.6,5.8-21-2.3
		c-16.4-8.1-20.7-28.5-19.9-40.1c0.3-4.2,1.2-11.3,3.7-18.9c-3.4-3.1-1.4-9-1.4-9c-15.9-3.2-22.5-16.1-22.5-16.1c-2-4.3-4.6-4-4.6-4
		c-8.1-1.7-27.7-14.7-29.7-32.6c-2-17.9,8.9-52.2,50.7-57.6c41.8-5.5,41.5,31.7,41.5,31.7c16.7-0.9,19.9,8.4,19.9,8.4
		c2.4,4.8,3.7,9.1,4.3,12.9c0-0.3,0.2-0.7,0.5-0.9c0.7-4.2,3.4-13.9,13.9-27.7c0,0-0.1,0-0.4,0c-0.1,0.1-0.3,0.1-0.5,0.1
		c-0.6,0.1-1.2,0.1-1.9,0.2c-0.6,0.2-1.1,0.5-1.4,1c0,0-0.1-0.5-0.1-1.5c-0.1-0.2-0.1-0.3-0.1-0.5c0-0.3,0.1-0.6,0.3-0.8
		c0,0,0,0,0,0c0.9-4.1,4.6-13.2,19.6-30c0,0,10.4-12.9,12.2-20.8c0,0-0.5,0-1.2,0.1c-0.5,0.1-1,0.2-1.5,0.4c0,0,0,0-0.1,0
		c-0.2,0.1-0.4,0.2-0.6,0.1c-0.1,0-0.2,0-0.3,0c0,0,0,0,0,0c-0.5,0.2-1,0.5-1.2,0.9c0,0,0-0.6,0.4-1.9c0-0.1,0-0.2,0-0.3
		c0-0.1,0.1-0.3,0.2-0.4c0.8-2.3,2.7-6.2,6.9-12c0,0,3.5-7.8,1-9.9c0,0-4.8,0.8-5.8,3.3c0,0,0.8-4.8,0.9-7.9c-0.1,0-0.1,0-0.2,0
		c-0.6,0-1.1-0.5-1.1-1.1c0-1,0-2.1-0.1-3.1c0-0.1,0-0.1,0-0.2c-0.3-0.6-0.6-1.2-0.9-1.7c-0.3,0-0.5-0.1-0.8-0.3
		c-0.2-0.2-0.4-0.6-0.3-1c-0.5-0.4-1.1-0.6-1.7-0.4c0,0-0.7-1.3-1.9-1.4c-0.3,0.2-0.7,0.3-1.1,0.4c0,0-1.6,1.5-2.8,0c0,0,0,0,0,0
		c0,0-0.6,0-1-0.3c-0.1,0-0.1,0-0.2,0.1c-0.1,0.1-0.2,0.1-0.4,0.2c0,0,0,0,0,0c-0.6,0.3-1.1,0.4-1.6,0.4c0,0.2-0.1,0.4-0.3,0.5
		c-0.4,0.4-1.2,0.5-1.6,0c-0.3-0.4-0.6-0.9-0.7-1.3c-0.1-0.1-0.2-0.1-0.3-0.1c-0.4-0.2-1-0.5-1.5-0.9c0,0.1,0,0.2,0,0.3l0.9,7.1
		c0.1,2.2,0.3,4,0.4,5.5c0,0.3,0.1,0.5,0.1,0.8c0.7,5.1,1.8,6.8,4.3,10.6c1.7,2.5,3,6.7,3.3,11.7c0.6,5.8-0.6,11.8-2.5,17.1
		c-2.4,6.9-6.4,14-13.1,17.5c-3.7,1.9-8,2.5-12.2,2.2c-3.2-0.2-6.6-1.2-8.5-3.8c-8.5-8.5-9.3-29.3-3.7-37.8
		c6.7-10.2,8.6-20.2,8.5-28.4l0,0c-11.1,1.1-14.8-2.3-14.8-2.3c-4.2-2.1-12.1-1.2-12.1-1.2c-2.7-0.6-9.6,8.4-9.6,8.4
		c-2.9-12.5-3-17.1,3.3-26.9c6.3-9.8,18.4-15.4,18.4-15.4c-4.2-4.2-0.8-8.1-0.8-8.1c1.2-0.9,2.3-1.4,3.4-1.7
		c0.1-0.3,0.3-0.5,0.6-0.6c0.1-0.3,0.1-0.6,0.2-0.9v-1.4c-0.2,0.2-0.5,0.2-0.8,0.2c-0.6-0.1-1.3-0.2-1.9-0.1c-2.4,0.8-3.6,3-3.6,3
		c-8.9,6.9-12.4,5.8-12.4,5.8c-0.3-0.1-0.5-0.2-0.8-0.2c-0.7,0-1.3-0.1-2-0.2c-0.5-0.1-0.7-0.4-0.8-0.8c-13.3-6.1,0.1-19.5,0.1-19.5
		c19.6-13.5,0.3-27.4,0.3-27.4c-24.2-22.2,13.3-14.7,13.3-14.7c20.5-3.7,6.8-21.7,6.8-21.7C613.5,109.6,627.3,97,627.3,97
		s19.6-17.6,31.7-8.4c3.8,2.9,6.4,3.9,8.1,3.8c0.1-0.2,0.2-0.3,0.3-0.4c0.2-0.2,0.4-0.3,0.7-0.3c0.2,0,0.3-0.1,0.5-0.1
		c0,0,0.1,0,0.1,0c0.1,0,0.1-0.1,0.2-0.1c0.1,0,0.1-0.1,0.2-0.1c0,0,0.1,0,0.1-0.1c0,0,0,0,0,0c0,0,0.1-0.1,0.1-0.1
		c0.1-0.1,0.1-0.1,0.2-0.2c0.1-0.1,0.1-0.1,0.2-0.2c0,0,0,0,0,0c0.1-0.1,0.2-0.3,0.3-0.5c0,0,0,0,0-0.1c0-0.1,0.1-0.1,0.1-0.2
		c0-0.1,0.1-0.3,0.1-0.4c0-0.2,0-0.4,0-0.6c0-0.4,0.1-0.7,0.4-0.9c0-0.4,0-0.7,0-0.7c4.9-8.1,13.8,0,13.8,0c2.4,2.3,4.6,4.7,6.5,7.2
		c0.2,0.1,0.4,0.2,0.5,0.4c0.4,0.6,0.8,1.3,1.2,2c5.8,8.3,8.9,16.9,10.4,25.2c0.1,0.5,0.3,1.1,0.4,1.6c1.1,5,1.8,10.2,1.4,15.3
		c-0.3,4.7-1.5,9.2-2.8,13.7c-1.2,5.7-2.7,9.4-3,10.2c0.6-0.2,1.2-0.3,1.8-0.5c2.4-1.2,6.6-3,10.6-3.8c0.8-0.2,1.5-0.3,2.3-0.4
		c0.2,0,0.3,0,0.5,0.1c1.5,0,2.9,0.2,4,0.8c0,0-0.9,0.5-2,1.2c-0.1,0.2-0.2,0.3-0.4,0.4c-1,0.6-1.9,1.4-2.6,2.4
		c-0.2,0.3-0.5,0.7-0.7,1c0.9,0.2,1.9,0.3,2.8,0.5c7,0.2,22,1.5,26.5,8.3c0,0-0.3,0-0.7,0c-0.1,0.7-0.8,1.4-1.7,0.9
		c-0.6-0.3-1.2-0.6-1.7-1c-3.5,0-8.1,0.4-8.2,1.8c0,0,24.4,3.2,33,30.4c0.2,0.5,0.4,1.1,0.6,1.6c0.1,0.2,0.1,0.4,0,0.6
		c0.1,0.5,0.3,0.9,0.4,1.4c0,0-5.5-1.4-5.8,0c0,0,6.3,4.3,8.9,19.9c0.4,1.6,0.7,3.2,1,4.8c0.4,2.7,0.7,5.3,0.8,8
		c0.1,2.6,0,5.2-0.7,7.7c0,1-0.1,2.1-0.2,3.1l-1.4-1.8c-0.5-0.1-0.8-0.5-0.8-1l-1.5-2c0,0,1.4,14.6,0,23.1c-0.1,1.2-0.2,2.4-0.4,3.6
		c-0.2,1.4-2.4,0.8-2.2-0.6c0-0.2,0-0.3,0.1-0.5c-1.3-1.4-3.3-3-3.8-1.7c0,0,0.2,5.6-0.1,12.6c0,1.1-0.1,2.3-0.2,3.4
		c-0.4,7.2-1.4,15-3.5,19.1c-0.2,0.9-0.3,1.8-0.4,2.7c-0.2,1.3-0.3,2.5-0.3,3.8c0,1.3,0,2.7-0.1,4c0,0.8,0,1.6,0,2.4
		c0,0.6-0.4,1-0.9,1.1c-0.1,0.1-0.1,0.3-0.2,0.4c0,0-0.2-0.2-0.4-0.5c-0.3-0.1-0.5-0.3-0.6-0.6c-0.8-0.7-1.9-1.4-2.7-0.9l-1.7,22.8
		c0,0-0.2,2,0.4,4.8c0.3,0.1,0.7,0.3,0.8,0.8c0.4,1.1,0.6,2.2,0.7,3.3c2.3,4.3,7.3,8.6,18,9.6c0,0,0.1,0,0.1,0
		c0-0.6,0.4-1.1,1.1-1.1c0.9,0,1.8,0,2.7-0.1c6-1.8,17.5-5,23.5-5.7c0.1,0,0.2,0,0.3-0.1c0.2,0,0.3,0,0.4,0c0.9-0.1,1.6-0.1,2.2,0
		c0,0-2.8,3.5-2.3,4.3c0,0,42.6-2.3,48.7,4c0,0-7.2,4-5.2,4.3c0,0,0.5,0,1.3,0.1c0.1-0.1,0.3-0.1,0.5-0.1c5,0.1,10.1,0.5,15.1,1.1
		c11.3,0.9,24.3,2.6,25.5,5.3c0,0-0.5,0.1-1.2,0.3c0,0.7-0.5,1.4-1.4,1.1c-0.5-0.1-1-0.3-1.5-0.4c-2.5,0.7-5,1.8-4.3,2.7
		c0,0,13.8,0,18.8,3.3c0,0,0,0,0,0c0.2,0.1,0.3,0.2,0.4,0.3c0.3,0.2,0.5,0.5,0.7,0.7l0.1,0c0,0-0.1,0-0.1-0.1c0,0,13.1-1.7,18.5,8.8
		c0,0,0,0,0,0l3.3,1.6c0,0,10.7-31.7-4.6-51.9c-15.3-20.2-33.4-70-32.3-96.8c0,0,3.5-9.2,2.3-59.1c0,0-4.5-55.2,25.9-78.4
		c0,0-1.6,2.6-3.8,7.3c-2.6,5.8-4.9,11.7-6.8,17.8c-5.2,16.9-9.2,41-4,68.8c0.1,0.2,0.2,0.5,0.3,0.7c0,0.1,0.1,0.2,0.2,0.3
		c0.1-0.1,0.2-0.2,0.3-0.2c-0.8-19.8-1.1-104.6,48.6-123c1-0.8,2.1-1.4,3.4-1.5c0.3,0,0.6,0,0.8,0.2c1.2-0.3,2.4-0.6,3.6-0.9
		c0,0-46.5,40.7-42.9,104.5c0.1,0.9,0.2,1.8,0.4,2.6c2-9.2,26.8-117.8,82.6-116.7c0,0-0.8,0.4-2.3,1.2c0.2,0.6,0.1,1.3-0.6,1.6
		c-3.1,1.2-6.1,2.8-8.9,4.5c-15.2,11.1-40,35.3-42.5,76.4c0,0.9,0.1,1.8,0.1,2.7l0.2-0.3c4.6-11.2,37.9-86.7,87-86.2
		c0,0-57.7,28.8-68.8,84.7l0,0c0.4-0.8,35-65.4,98.1-59.6c0,0-58.4,15.6-71.1,48.3c0,0,44-33.1,66.1-35.1c22-2,49.1-1.8,80,40.2
		c0,0-33.8-26.1-56.6-25.1c-22.8,1-45.1,11.9-45.1,11.9s67.5-16.8,110.2,28.2C1133.4,157.6,1161.8,188.1,1160.2,226.5z"/>
</g>
<path class="st2" d="M1662,289.4c0-99-17.4-193.9-49.2-281.9h-265.5c1,1.9,2.1,3.8,3.1,5.7c1.2,2.2,2.3,4.4,3.5,6.6
	c18.7,36.1,33.8,74.3,44.8,114.3c0.3,1.1,0.6,2.3,0.9,3.4c13,48.4,19.9,99.3,19.9,151.9c0,144-52,275.8-138.2,377.8
	c-4.5,5.4-9.2,10.7-13.9,15.8c-11,12.1-22.6,23.8-34.5,35c-1.7,1.6-3.4,3.2-5.2,4.8c-3.5,3.2-7,6.3-10.5,9.3
	c-1.8,1.5-3.6,3.1-5.3,4.6c-10.7,9.1-21.8,17.8-33.2,26.1c-7.6,5.5-15.3,10.9-23.2,16.1c-3.9,2.6-7.9,5.1-11.9,7.6
	c-4,2.5-8,4.9-12.1,7.3c-4.1,2.4-8.1,4.7-12.3,7c-20.6,11.5-41.9,21.8-64,30.8c-4.4,1.8-8.8,3.5-13.3,5.2
	c-20.1,7.6-40.6,14.2-61.7,19.6c-4.7,1.2-9.4,2.4-14.1,3.4c-42.5,9.8-86.8,15-132.2,15c-5.1,0-10.1-0.1-15.1-0.2
	c-5-0.1-10-0.3-15-0.6c-2.5-0.1-5-0.3-7.5-0.4c-7.5-0.5-14.9-1.1-22.3-1.8s-14.7-1.6-22-2.7c-7.3-1-14.6-2.2-21.8-3.5
	c-2.4-0.4-4.8-0.9-7.2-1.3c-4.8-0.9-9.5-1.9-14.3-2.9c-2.4-0.5-4.7-1-7.1-1.6c-259.7-59.9-453.3-292.6-453.3-570.5
	c0-102.2,26.2-198.2,72.2-281.9H55.2C23.4,95.5,6,190.4,6,289.4c0,457.3,370.7,828,828,828S1662,746.6,1662,289.4z"/>
<g>
	<path class="st3" d="M250,702.6l-34.2-54.9l-37.5,23.4l40.2,64.4L195.2,750l-58-93l140.2-87.4l57.9,92.8L311.9,677l-40-64.2
		l-33.4,20.8l34.2,54.9L250,702.6z"/>
	<path class="st3" d="M262.2,786.5l48.2,52.9l-20.2,18.4L219.3,780l122.1-111.2l22.7,24.9L262.2,786.5z"/>
	<path class="st3" d="M430.2,893.5L399.7,943L371,925.3l86.8-140.5l54.3,33.5c10.4,6.5,18.4,14.1,24,22.8c5.5,8.8,8.3,18,8.1,27.8
		c-0.1,9.7-3,19.2-8.6,28.2c-8.5,13.8-19.9,21.7-34.1,23.9c-14.2,2.2-29.6-1.8-46.1-12L430.2,893.5z M444.7,870l25.6,15.8
		c7.6,4.7,14.5,6.5,20.7,5.3c6.2-1.1,11.4-5.1,15.5-11.8c4.3-6.9,5.7-13.7,4.3-20.4c-1.4-6.7-5.6-12.3-12.6-16.8L472,825.9
		L444.7,870z"/>
	<path class="st3" d="M634.9,975.5l-60.8-22.2l-15.2,41.6l71.3,26l-9.4,25.7l-103-37.6l56.6-155.1l102.8,37.5l-9.5,25.9l-71.1-26
		l-13.5,37l60.8,22.2L634.9,975.5z"/>
	<path class="st3" d="M729.2,1005.5l-26.6-3.9l-8.8,59.8l-33.3-4.9l24.1-163.4l60.1,8.9c19.1,2.8,33.2,9.3,42.3,19.4
		c9.1,10.1,12.5,23.1,10.2,38.8c-1.6,11.1-5.4,20.1-11.3,26.8c-5.9,6.7-14,11.6-24.3,14.6l25.1,71.9l-0.2,1.6l-35.8-5.3
		L729.2,1005.5z M706.6,974.3l26.9,4c8.4,1.2,15.2,0,20.4-3.6c5.2-3.6,8.4-9.2,9.5-16.8c1.1-7.7-0.1-14.1-3.8-19.1
		c-3.7-5.1-10-8.2-19-9.6l-26.8-4L706.6,974.3z"/>
	<path class="st3" d="M921,998.3l-64.6,3.5l2.4,44.2l75.8-4.1l1.5,27.3l-109.5,5.9l-8.8-164.9l109.2-5.8l1.5,27.5l-75.6,4l2.1,39.3
		l64.6-3.5L921,998.3z"/>
	<path class="st3" d="M1096.6,1009.3c-3.9,8.7-10.7,16.4-20.4,23.2c-9.6,6.8-21,11.9-34,15.4c-13.7,3.7-26.5,3.9-38.4,0.7
		c-11.9-3.2-22.2-9.8-30.9-19.8c-8.7-10-15.2-22.6-19.5-38.1l-2.9-10.8c-4.3-15.9-5.3-30.4-3.2-43.5c2.2-13.1,7.4-24,15.8-32.9
		c8.3-8.9,19.2-15.1,32.7-18.7c18.7-5,34.6-4.5,47.6,1.7c13,6.2,22.8,17.6,29.4,34.3l-31.7,8.5c-3.9-8.7-8.9-14.6-15-17.5
		c-6.1-2.9-13.5-3.2-22.2-0.8c-11.1,3-18.4,9.5-21.9,19.4c-3.5,10-3.1,23.2,1.3,39.8l2.7,10.2c4.5,16.7,11.1,28.5,19.6,35.4
		s19,8.6,31.1,5.4c12.2-3.3,20.2-8.3,24-14.9l-7.4-27.5l-29.6,8l-6.5-24.2l62.1-16.7L1096.6,1009.3z"/>
	<path class="st3" d="M1173.9,928.5l-23.7,12.5l28.3,53.4l-29.8,15.7l-77.2-146l53.7-28.4c17.1-9,32.3-12.1,45.6-9.4
		c13.3,2.8,23.7,11.2,31.1,25.2c5.3,10,7.5,19.4,6.8,28.3c-0.8,8.9-4.4,17.6-11,26.2l62.8,43.1l0.7,1.4l-32,16.9L1173.9,928.5z
		 M1137.2,916.7l24-12.7c7.5-4,12.3-8.9,14.3-15c2.1-6,1.3-12.4-2.2-19.1c-3.6-6.9-8.4-11.3-14.4-13.2c-6-1.9-12.9-0.7-20.9,3.5
		l-23.9,12.7L1137.2,916.7z"/>
	<path class="st3" d="M1317.7,907.2l-27,20.2L1191.9,795l27-20.2L1317.7,907.2z"/>
	<path class="st3" d="M1448.5,782.4l-23.3,24.3l-123.8-27.9l78.4,75.2l-23.3,24.3L1237.2,764l23.3-24.3l124.1,28l-78.6-75.4
		l23.2-24.2L1448.5,782.4z"/>
	<path class="st3" d="M1481.2,584.2c14,8.3,24.8,18,32.4,29.1c7.6,11.1,11.6,23,11.9,35.5c0.3,12.5-3,24.7-10,36.4
		c-6.9,11.7-15.9,20.4-27,26.2c-11.1,5.8-23.4,8.1-36.8,6.9c-13.5-1.2-27.1-5.8-40.8-13.9l-7-4.2c-14-8.3-24.8-18.1-32.5-29.4
		c-7.7-11.3-11.7-23.2-11.9-35.7c-0.3-12.5,3-24.6,10-36.3c6.9-11.7,16-20.5,27.1-26.2c11.1-5.7,23.4-8,37-6.6
		c13.6,1.3,27.4,6.1,41.3,14.3L1481.2,584.2z M1457.4,609.7c-14.9-8.8-27.8-12.9-38.7-12.2c-10.9,0.7-19.2,5.9-25,15.7
		c-5.8,9.7-6.4,19.5-1.9,29.3c4.5,9.8,14.1,19.1,28.9,27.9l6.9,4.1c14.5,8.6,27.3,12.6,38.5,12.1c11.1-0.5,19.6-5.8,25.5-15.7
		c5.8-9.7,6.3-19.5,1.7-29.3c-4.6-9.8-14.3-19.1-29-27.9L1457.4,609.7z"/>
</g>
</svg>
