<!-- Generator: Adobe Illustrator 25.0.0, SVG Export Plug-In  -->
<svg version="1.1" xmlns="http://www.w3.org/2000/svg" xmlns:xlink="http://www.w3.org/1999/xlink" x="0px" y="0px" width="2560px"
	 height="1442.5px" viewBox="0 0 2560 1442.5" style="overflow:visible;enable-background:new 0 0 2560 1442.5;"
	 xml:space="preserve">
<style type="text/css">
	.st0{fill:#FFFFFF;}
	.st1{fill:#84DFF4;}
</style>
<defs>
</defs>
<path class="st0" d="M2293.9,267.2c0,0-98,7.8-107.7,0c0,0-25.3,7.8-37.9,0c0,0-0.9,11.8-35.9,3.5c0,0-20.1,8.4-22.6,3
	c0,0-10.3,19.3-34.6-2.3c0,0-22.3,15.3-43.7-4.1c0,0-37.8,43.5-66,7.2c0,0-30.7,10.3-40.1-11.1c0,0-27,7.8-33.7-2.9
	c0,0-20.3,10.7-23.2,0c0,0-27.2,34.9-70.8,8.7c0,0-5.8,11.6-23.3,1c0,0-11.6,9.7-23.3-1c0,0-25.2,37.8-71.8,1c0,0-180.5,9-21.3-20.3
	c0,0-2.9-19.5,25.2-20.5c0,0,1-9.7,9.7-7.8c0,0,3.9-45.6,47.6-18.4c0,0,13.6-4.9,23.3,1c0,0,11.6-32,40.8-4.9c0,0,6.8-9.7,16.5-1
	c0,0-9.7-92.2,34-95.1s61.1,47.5,61.1,47.5s32-1.9,42.7,22.3c0,0,13.6-8.7,25.2,1c0,0,22.3-24.3,38.8,12.6c0,0,24.3-6.8,30.1,29.1
	c0,0,5.8-6.8,10.7,6.8c0,0,25.9-11.6,45,14.6c0,0,5.5-1.7,9.3,12.7c0,0,21.4-9.6,31.1,0c0,0,30.1-23.4,59.2-4c0,0,33.9-4.6,47,4
	C2235.1,249.9,2305.5,252.7,2293.9,267.2z"/>
<path class="st0" d="M795,500.8c0,0-98,7.8-107.7,0c0,0-25.3,7.8-37.9,0c0,0-0.9,11.8-35.9,3.5c0,0-20.1,8.4-22.7,3
	c0,0-10.3,19.3-34.6-2.3c0,0-22.3,15.3-43.7-4.1c0,0-37.8,43.5-66,7.2c0,0-30.7,10.3-40.1-11.1c0,0-27,7.8-33.7-2.9
	c0,0-20.3,10.7-23.2,0c0,0-27.2,34.9-70.8,8.7c0,0-5.8,11.6-23.3,1c0,0-11.6,9.7-23.3-1c0,0-25.2,37.8-71.8,1c0,0-180.5,9-21.4-20.2
	c0,0-2.9-19.5,25.2-20.5c0,0,1-9.7,9.7-7.8c0,0,3.9-45.6,47.6-18.4c0,0,13.6-4.9,23.3,1c0,0,11.6-32,40.8-4.9c0,0,6.8-9.7,16.5-1
	c0,0-9.7-92.2,34-95.1s61.1,47.5,61.1,47.5s32-1.9,42.7,22.3c0,0,13.6-8.7,25.2,1c0,0,22.3-24.3,38.8,12.6c0,0,24.3-6.8,30.1,29.1
	c0,0,5.8-6.8,10.7,6.8c0,0,26-11.6,45,14.6c0,0,5.5-1.7,9.3,12.7c0,0,21.3-9.6,31,0c0,0,30.1-23.4,59.2-4c0,0,33.9-4.6,47,4
	C736.3,483.4,806.7,486.2,795,500.8z"/>
<path class="st0" d="M656.6,194.1c0,0-57.9,9.3,0,11.2c0,0,17.4,5,28.7,0c0,0,4.4,1.9,10-0.6c0,0,18.7,12.8,33-3.9
	c0,0,5,1.7,9.3,0.9c0,0,4.2,14.8,34.5,7.6c0,0,9.7,1.5,13.5-1.6c0,0,16.2,6,31.1-5.1c0,0,12.5,3.6,24.3,0c0,0,16.2,5.7,29.9,3.2
	c0,0,22.4,1.7,33.6-3.2c0,0,11.2,5.7,20.5-3c0,0,20.5,12.5,32.4,6.9c0,0,17.4,0.4,24.3-3.8c0,0,17.4,4.3,27.4,0c0,0,16.2,2.4,21.2,0
	c0,0,57.9-1.1,2.5-14.9c0,0-15-1.9-23,0c0,0-13.1-11.2-28.7-8.1c0,0-6.8-2.3-17.4-0.6c0,0-6.2-24.4-43.6-4.4c0,0-8.7-8.7-15.6-3.1
	c0,0-8.1-23.7-37.4-10c0,0-7.5-4.4-12.5,0c0,0-1.7-13.1-10.8-11.8c0,0-8.5-21.8-17.2-16.8c0,0-1.9-18.1-9.3-13.7
	c0,0-22.6-42.3-45.2,5c0,0-15.8-6.8-10.8,29.3c0,0-9.3-2.7-13.7,3c0,0-33.6-21.1-46.1,20.6c0,0-13.1-1.9-11.2,8.1
	C690.2,185.4,654.1,177.3,656.6,194.1z"/>
<path class="st0" d="M1235.7,467c0,0-57.9,9.3,0,11.2c0,0,17.4,5,28.7,0c0,0,4.4,1.9,10-0.6c0,0,18.7,12.8,33-3.9c0,0,5,1.7,9.3,0.9
	c0,0,4.2,14.8,34.5,7.6c0,0,9.7,1.5,13.5-1.6c0,0,16.2,6,31.1-5.1c0,0,12.5,3.6,24.3,0c0,0,16.2,5.7,29.9,3.2c0,0,22.4,1.7,33.6-3.2
	c0,0,11.2,5.7,20.6-3c0,0,20.6,12.5,32.4,6.9c0,0,17.4,0.4,24.3-3.8c0,0,17.4,4.3,27.4,0c0,0,16.2,2.4,21.2,0c0,0,57.9-1.1,2.5-14.9
	c0,0-14.9-1.9-23.1,0c0,0-13.1-11.2-28.7-8.1c0,0-6.8-2.3-17.4-0.5c0,0-6.2-24.4-43.6-4.4c0,0-8.7-8.7-15.6-3.1
	c0,0-8.1-23.7-37.4-10c0,0-7.5-4.4-12.5,0c0,0-1.7-13.1-10.8-11.8c0,0-8.5-21.8-17.2-16.8c0,0-1.9-18.1-9.3-13.7
	c0,0-22.6-42.4-45.2,5c0,0-36.1-24.3-31.1,11.8c0,0,11,14.8,6.6,20.5c0,0-33.6-21.1-46.1,20.6c0,0-13.1-1.9-11.2,8.1
	C1269.3,458.3,1233.2,450.2,1235.7,467z"/>
<path class="st1" d="M2560,1442.5"/>
<path class="st1" d="M0,1442.5"/>
<path class="st1" d="M2560,0"/>
<path class="st1" d="M0,0"/>
</svg>
