<?xml version="1.0" encoding="iso-8859-1"?>
<!-- Uploaded to: SVG Repo, www.svgrepo.com, Generator: SVG Repo Mixer Tools -->
<!DOCTYPE svg PUBLIC "-//W3C//DTD SVG 1.1//EN" "http://www.w3.org/Graphics/SVG/1.1/DTD/svg11.dtd">
<svg fill="#000000" height="800px" width="800px" version="1.1" id="Capa_1" xmlns="http://www.w3.org/2000/svg" xmlns:xlink="http://www.w3.org/1999/xlink" 
	 viewBox="0 0 497.656 497.656" xml:space="preserve">
<g>
	<path d="M331.54,203.29l-17.673,17.681l-17.671-17.681l-14.848-14.849L266.5,203.29l-17.673,17.672l-17.67-17.672l-14.849-14.849
		L201.46,203.29l-17.672,17.681l-17.671-17.681l-12.076-12.074c-12.65,19.349-20.078,42.749-20.078,67.977
		c0,30.633,10.999,58.5,28.965,79.751L185.879,316l17.671-17.671L221.223,316l27.604,27.605L276.435,316l17.671-17.671L311.779,316
		l22.951,22.951c17.964-21.25,28.965-49.125,28.965-79.758c0-25.229-7.429-48.628-20.08-67.977L331.54,203.29z M219.978,254.547
		c-8.642,0-15.638-7.005-15.638-15.638c0-8.631,6.996-15.636,15.638-15.636c8.632,0,15.622,7.005,15.622,15.636
		C235.6,247.543,228.61,254.547,219.978,254.547z M274.457,272.92l-23.352,23.341c-1.26,1.261-3.294,1.261-4.556,0l-23.343-23.341
		c-0.918-0.92-1.196-2.303-0.7-3.508c0.505-1.205,1.677-1.993,2.977-1.993h46.686c1.31,0,2.481,0.788,2.978,1.993
		C275.654,270.617,275.376,272,274.457,272.92z M277.688,254.547c-8.642,0-15.638-7.005-15.638-15.638
		c0-8.631,6.996-15.636,15.638-15.636c8.631,0,15.628,7.005,15.628,15.636C293.316,247.543,286.319,254.547,277.688,254.547z"/>
	<path d="M386.818,335.827l-2.156-2.156l-45.278,45.278l-45.277-45.278l-45.278,45.278L203.55,333.67l-45.284,45.278l-45.27-45.278
		l-2.156,2.156c-0.042,1.546-0.236,3.271-0.236,4.761c0,76.332,61.884,157.068,138.224,157.068
		c76.343,0,138.225-80.736,138.225-157.068C387.052,339.098,386.858,337.373,386.818,335.827z"/>
	<path d="M151.276,153.098l32.513,32.521l32.521-32.521l32.518,32.521l32.522-32.521l32.519,32.521l32.513-32.521l32.513,32.521
		l2.114-2.123C363.695,103.793,311.07,0,248.827,0c-62.257,0-114.873,103.786-132.179,183.496l2.116,2.123L151.276,153.098z"/>
</g>
</svg>