<!-- Generator: Adobe Illustrator 25.0.0, SVG Export Plug-In  -->
<svg version="1.1" xmlns="http://www.w3.org/2000/svg" xmlns:xlink="http://www.w3.org/1999/xlink" x="0px" y="0px" width="1000px"
	 height="1000px" viewBox="0 0 1000 1000" style="overflow:visible;enable-background:new 0 0 1000 1000;" xml:space="preserve">
<style type="text/css">
	.st0{fill:none;stroke:#F9D920;stroke-width:13;stroke-linejoin:round;stroke-miterlimit:10;}
	.st1{fill:#19AC79;}
</style>
<defs>
</defs>
<path class="st0" d="M202.2,359.4c-48.7,6.4-61.5,46.4-59.1,67.2s25.2,36,34.6,38c0,0,3-0.3,5.4,4.7c0,0,7.7,15.1,26.2,18.8
	c0,0-2.3,6.9,1.7,10.5c-3,8.9-4,17.2-4.4,22.1c-1,13.4,4,37.3,23.2,46.7c19.2,9.4,24.5,2.7,24.5,2.7c3.7,0.7,5-0.7,5-0.7
	c4.7-3,5.7-1,5.7-1c7.1,6.4,14.8,1.7,14.8,1.7c6.4,11.1,15.5,9.1,15.5,9.1c2.4,0.3,11.1-0.7,11.1-0.7c-1,2.7,0,5.6,0,5.6
	s3,13.9,24.9,10.9c1.3-0.2,2.4-0.4,3.4-0.6c0.3,0.6,0.5,1,0.7,1.3c5.3,8.6,24.5,25.4,24.5,25.4c0.3-5,2.7-3.2,2.7-3.2
	c12.4,14.5,34.8,23.9,34.8,23.9l0,0c0.1,0.1,0.6,0.6,1.7,1.3c0,0.2,0,0.3,0.1,0.5l-1.2,0.2c5.6,13.1,4.3,7.5,11.5,16.6
	s4.4,38.2,4.4,38.2c-7.4,15.8,6.5,14.4,6.5,14.4c10.5-0.3,14.1,1.6,15.4,3.1c1.1,1.3,2.4,2.3,4.1,2.7c11.3,2.7,25,4.2,35.9,4.9
	c0.1,0.2,0.1,0.4,0.1,0.6c2.1,10.9,9.7,10.3,9.7,10.3c3.2,4.1,5.8,5,7.5,4.9c0,0.1,10.2,65.9-23.8,96.5l-46.2,13.8
	c-5-0.2-10.6-0.8-16.7-1.9c0,0-30.4-3-32.4,4.9c-5.7,0-17.1,1.5-18.9,12.7c0,0,10-5,16.7-3.8c-0.1,0.2-0.1,0.3-0.2,0.5
	c-0.4,0.5-0.3,1.3,0.1,1.7c0.1,0.3,0.2,0.7,0.5,1.1c0,0-3.8-1.3-4,3.8c-18.8,3.4-18.8,21.9-18.8,21.9c6.8-9.5,18-10.1,23-9.9
	l0.5,1.4c0,0,4.1,3.8,11.9,2.2c0.9-0.1,1.7-0.2,2.6-0.3c2.4-0.5,4.7-1.4,6.7-2.6c1-0.6,1.9-1.3,2.8-2.1c0.4-0.3,0.7-0.7,1.1-1
	l7.3-1.1c-11.2,2.6-15.5,8.1-16.7,13.5c-18.1,6.7-19.1,27-19.1,27c8.3-10.2,15.9-13.1,20.9-13.6c0.4,0.8,0.6,1.2,0.6,1.2
	c3.6,8.9,24.2,6.9,24.3,6.9c0,0,0,0,0,0c-3.3,1.9-1.9,11-1.9,11l0.6,0.6c-3.8,5.1-7.8,12.8-6.2,21.6c0,0,5.8-11.2,13.5-13.5l0.2,0.3
	c22.6,6.3,29.4-11,29.4-11c5.4-7.9,11.3-14.3,16.7-19.3c0,0,0,0,0,0v0c4-3.7,7.8-6.6,10.9-8.8c0,0,0,0,0.1,0v0
	c5.5-3.9,9.2-5.6,9.2-5.6c31.9-17.3,62.3-15.3,78.2-12.3l0,0c0,0,0,0,0,0c1.8,0.3,3.4,0.7,4.8,1c2.4,0.7,4.8,1.4,7.1,2.3
	c0.2,0.1,0.4,0.3,0.6,0.4c0.3,0.3,0.8,0.6,1.5,1l0,0c0,0,0,0,0,0c2.2,1.3,6.4,3.2,13.6,4.3c1.9,0.5,3.9,0.8,5.8,0.8
	c0.6,0,1.2,0,1.7,0c0.2,0,0.5,0,0.7,0c4.8,0.3,7.5-1.3,9-3.5c0.1-0.1,0.2-0.1,0.2-0.2c9-1.7,15.4,8.2,15.4,8.2
	c3.8-16.8-14.5-19.2-15-19.3c-0.1-0.6-0.3-0.9-0.3-0.9c-10-14.3-28.2-10.2-45.7-9c0,0,0.1-0.1,0.2-0.4c1.3-0.2,1.4-2.1,0.2-2.5
	c4.9-1.5,13.8,1.1,13.8,1.1c-7.8-10.3-15.1-6.8-15.1-6.8c1.4,1.4,1.3,5.1,1.2,5.7c0,0,0,0,0,0c-0.1-0.3-0.2-0.6-0.3-0.9
	c0,0,4.1-13.9-28.8-6.3c-0.6-1.3-1.6-3.4-2.6-6.2c-0.8-2.3-1.5-4.5-2.2-6.8c-3.7-12.9-6.5-32.9,1.4-54.8c10.3-28.7,9.4-39,8.4-42.3
	c0.5-1.2,0.7-2.5,0.7-2.5c1.1,0.6,2.1,0.9,2.9,1c0.4,0.1,0.8,0.1,1.2,0.1c1.4-0.1,2.1-0.9,2.5-1.6c0.8-0.9,1.5-1.9,2.2-2.8
	c1.1-1.5,2.2-2.9,3.2-4.4c0.9-1.4,1.8-2.9,2.4-4.4c3-6.4,2.6-11.3,2.1-13.8c2.1-0.4,3.9-0.9,3.9-0.9s0,0,0,0l0,0l42.8-21.7
	c3.4-1.9,5.8-3.8,7.5-5.6c0.4,0,0.7-0.2,1-0.6c0.3-0.6,0.6-1.2,0.9-1.8c4.6-7.6-1.7-13.9-1.7-13.9c-7.4-23.1,0-39.6,0-39.6
	c8.8-15.9,12.3-29.5,13.6-37.1c0.2-0.8,0.4-1.7,0.6-2.5c0.7-3.4,1.1-6.8,1.2-10.2c3.4-26.3-0.4-49.1-7.2-68.1c1.4,0.2,2.7,0.5,4,0.9
	c4,2,7.9,4.1,11.6,6.7c0.2,0.1,0.3,0.2,0.5,0.4c22.7,19.8,32.7,68.6,32.7,68.6c0.2-0.9,0.4-1.8,0.5-2.7c0.8,0.3,2-0.4,1.7-1.6
	c-0.3-1.2-0.6-2.4-0.9-3.6c8.1-59.2-37.8-84.8-37.8-84.8c19.5-2.6,36.1,6.7,48.9,18.4c4,4,7.9,8.2,11.6,12.4
	c10.7,13.1,16.7,25.4,16.7,25.4c-0.1-1.9-0.2-3.7-0.4-5.6c0.9,0,1.8-0.9,1.2-1.9c-0.6-0.9-1.2-1.9-1.8-2.8
	c-7.6-51.9-49.7-68.8-49.7-68.8c1.4-0.1,2.8-0.2,4.2-0.2c13.6,0.4,26.9,5.2,37.5,13.6c5.8,4.6,11.3,9.7,16.7,14.8
	c5,4.8,9.9,9.8,14.3,15.2c3.8,5.1,7,9.9,9.5,13.9c1.3,2.4,2.5,4.8,3.6,7.3c0.2,0.5,0.6,0.7,1.1,0.7c0.9,1.7,1.4,2.6,1.4,2.6
	c0-1.2-0.1-2.4-0.2-3.5c0.1-0.3,0.2-0.7,0-1.1c0-0.1-0.1-0.2-0.1-0.2c-5.6-64.2-65.8-85.8-75.1-88.7l17.1,0.2
	c0.8,0.1,1.5,0.2,2.3,0.3c3.7,0.6,7.4,1.3,11,2.4c4.5,1.6,8.7,3.7,12.6,6c3.8,2.5,7.4,5.5,10.8,8.5c4.6,4.1,8.9,8.5,12.9,13.2
	c4.4,5.3,8.4,10.9,11.9,16.9c0.1,0.2,0.2,0.3,0.4,0.4c1.8,3.2,2.6,5.1,2.6,5.1c-0.3-1.8-0.6-3.6-0.9-5.4c0.4-0.4,0.5-0.9,0.2-1.5
	c-0.2-0.4-0.5-0.8-0.7-1.2c-17.5-83.9-86.5-69.4-93.2-67.7c2.3-7.5,7.4-14,14.2-18c3.9-2.3,8.2-3.6,12.6-4.5c5-1,10-1.7,15-2.3
	c1-0.1,2-0.2,3.1-0.3c11,0.3,19.6,2.4,19.6,2.4c-1.3-1.3-2.5-2.5-3.9-3.6c-0.1-0.6-0.5-1.2-1.2-1.3c-0.2,0-0.3,0-0.5-0.1
	c-33.9-26.4-81,1.3-81,1.3s1.4-2.5,4.2-6c2.8-3.1,5.6-6.2,8.5-9.2c0.1-0.1,0.2-0.2,0.3-0.3c8.2-7.5,20.1-15.2,35.9-16.4
	c0.8,0,1.7-0.1,2.5-0.1c14.7-0.5,32.4,4.6,53.2,20.3c27.9,21.1,40.2,51,45.1,79.2c0.5,3.1,0.9,6.2,1.3,9.2c0.8,6.3,1.3,12.7,1.3,19
	c0,0.2,0.1,0.5,0.2,0.6c0.6,28.2-4.5,49.5-4.5,49.5c26.6-98.9,0-144,0-144c-51.4-92.6-133.4-58.6-145.5-53c0.5-1.5,1-3,1.6-4.5
	c8-12.7,16.4-21.5,25-27.3c4.8-2.5,9.9-4.3,15.1-5.8c5.5-1.6,11.1-3.3,16.9-3.6c0,0,0.1,0,0.1,0c4.8,0.2,9.5,1,14.1,2.3
	c0.9,0.3,1.7,0.6,2.5,0.9c6.9,2.4,13.6,5.6,20,9.3c12.8,7.8,23.1,17.6,29.1,23.9c0.9,1,1.8,2.1,2.7,3.2c0.2,0.2,0.4,0.3,0.6,0.4
	c1.6,1.8,2.4,2.8,2.4,2.8c-0.3-1.2-0.7-2.4-1-3.6c0.2-0.4,0.2-1-0.2-1.5c-0.1-0.2-0.3-0.4-0.5-0.5c-29.7-95.1-118.7-49.5-118.7-49.5
	c1.7-4.7,4.3-8.7,7.3-12.1c2.8-1.2,5.4-3,7.4-5.4c0.7-0.9,1.3-1.8,1.9-2.8c0.2-0.2,0.5-0.3,0.7-0.5c0,0-0.1,0.1-0.1,0.1
	c85-34.1,136.1,59.8,136.1,59.8C794.7,241,683,229.9,683,229.9s64.3-12.7,109.8,28.3c45.5,41,49,126.8,49,126.8
	c10.8-75.4,3.8-104.4-43.1-156.7c-45.2-50.4-115.5-38-120.6-37.1l0.3-0.5c41.8-38.3,78.6-29.6,128.8-8.1
	c50.4,21.5,60.7,72.8,60.7,72.8c1.9-44.8-31.2-80.3-31.2-80.3c-49.7-52.5-128.5-32.9-128.5-32.9s25.9-12.7,52.6-13.9
	c26.6-1.2,66,29.2,66,29.2c-36.1-49-67.6-49.3-93.3-46.9c-25.7,2.4-77.1,40.9-77.1,40.9c14.9-38,82.9-56.3,82.9-56.3
	c-73.5-6.8-113.9,68.5-114.4,69.5l0,0C637.9,99.6,705.2,66,705.2,66c-57.2-0.5-96,87.6-101.4,100.6l-0.3,0.3
	c-0.1-1.1-0.1-2.1-0.2-3.2c2.9-47.9,31.8-76.1,49.5-89c3.3-2.1,6.7-3.9,10.3-5.3c0.8-0.3,1-1.2,0.8-1.9c1.7-1,2.7-1.4,2.7-1.4
	c-65-1.3-93.9,125.3-96.3,136c-0.2-1-0.3-2-0.4-3.1c-4.3-74.4,50-121.9,50-121.9c-1.4,0.3-2.8,0.6-4.2,1c-0.3-0.2-0.6-0.3-0.9-0.2
	c-1.5,0.2-2.8,0.9-4,1.8c-57.9,21.5-57.5,120.3-56.6,143.4c-0.1,0.1-0.3,0.1-0.4,0.3c-0.1-0.1-0.1-0.2-0.2-0.3
	c-0.1-0.3-0.3-0.6-0.4-0.8c-6.1-32.4-1.4-60.6,4.6-80.3c2.2-7.1,4.9-14,7.9-20.7c2.6-5.5,4.4-8.5,4.4-8.5
	c-35.5,27.1-30.2,91.4-30.2,91.4c1.3,58.1-2.7,68.9-2.7,68.9c-1.3,31.3,19.8,89.4,37.6,112.9c17.8,23.5,5.4,60.5,5.4,60.5l-3.9-1.8
	c0,0,0,0,0,0c-6.3-12.3-21.6-10.2-21.6-10.2c0,0,0.1,0,0.1,0.1l-0.1,0c-0.2-0.3-0.5-0.6-0.8-0.8c-0.1-0.1-0.3-0.3-0.5-0.3
	c0,0,0,0,0,0c-5.8-3.9-21.9-3.9-21.9-3.9c-0.9-1.1,2.1-2.3,5-3.2c0.6,0.2,1.2,0.3,1.7,0.4c1,0.3,1.6-0.5,1.6-1.3
	c0.9-0.2,1.5-0.3,1.5-0.3c-1.3-3.2-16.5-5.1-29.7-6.2c-5.8-0.7-11.7-1.1-17.6-1.2c-0.2,0-0.4,0-0.6,0.1c-1,0-1.6-0.1-1.6-0.1
	c-2.4-0.3,6.1-5,6.1-5c-7.1-7.4-56.8-4.7-56.8-4.7c-0.7-1,2.7-5,2.7-5c-0.6-0.1-1.5-0.1-2.5,0c-0.2,0-0.3,0-0.5,0
	c-0.1,0-0.2,0-0.3,0.1c-7,0.8-20.4,4.6-27.4,6.6c-1,0.1-2.1,0.1-3.1,0.1c-0.8,0-1.2,0.6-1.3,1.2c-0.1,0-0.2,0.1-0.2,0.1
	c-12.4-1.1-18.2-6.3-20.9-11.2c-0.2-1.3-0.4-2.6-0.9-3.8c-0.2-0.5-0.5-0.8-0.9-0.9c-0.7-3.2-0.5-5.6-0.5-5.6l2-26.5
	c0.9-0.6,2.2,0.3,3.1,1.1c0.1,0.4,0.4,0.6,0.7,0.7c0.3,0.3,0.5,0.6,0.5,0.6c0.1-0.1,0.2-0.3,0.3-0.5c0.6-0.1,1.1-0.5,1-1.2
	c0-0.9-0.1-1.9-0.1-2.8c0.2-1.5,0.2-3.1,0.2-4.6c0.1-1.5,0.2-2.9,0.4-4.4c0.1-1,0.3-2.1,0.5-3.1c2.5-4.7,3.6-13.8,4.1-22.2
	c0.1-1.3,0.2-2.6,0.2-4c0.3-8.1,0.1-14.6,0.1-14.6c0.6-1.5,2.9,0.4,4.5,2c0,0.2,0,0.4-0.1,0.6c-0.3,1.6,2.2,2.3,2.5,0.7
	c0.2-1.4,0.4-2.8,0.5-4.2c1.7-9.9,0-27,0-27l1.8,2.4c0,0.6,0.4,1.1,0.9,1.2l1.6,2.2c0.1-1.2,0.1-2.5,0.2-3.6c0.8-2.9,0.9-6,0.9-9
	c-0.1-3.1-0.4-6.3-0.9-9.3c-0.3-1.9-0.7-3.7-1.2-5.6c-3.1-18.1-10.4-23.2-10.4-23.2c0.3-1.7,6.7,0,6.7,0c-0.1-0.5-0.3-1.1-0.4-1.6
	c0.1-0.2,0-0.4-0.1-0.7c-0.2-0.6-0.5-1.3-0.7-1.9c-10-31.7-38.5-35.5-38.5-35.5c0.2-1.6,5.5-2,9.6-2.1c0.7,0.4,1.4,0.7,2,1.1
	c1,0.5,1.9-0.3,1.9-1.1c0.5,0,0.9,0,0.9,0c-5.3-7.9-22.8-9.4-30.9-9.6c-1.1-0.2-2.2-0.4-3.3-0.6c0.3-0.4,0.5-0.8,0.8-1.2
	c0.9-1.1,1.9-2,3.1-2.8c0.2-0.1,0.4-0.3,0.5-0.5c1.3-0.8,2.3-1.4,2.3-1.4c-1.3-0.7-2.9-1-4.7-0.9c-0.2-0.1-0.4-0.1-0.6-0.1
	c-0.9,0.1-1.8,0.3-2.7,0.5c-4.6,0.9-9.6,3.1-12.3,4.4c-0.7,0.2-1.4,0.4-2.1,0.6c0.3-0.9,2-5.2,3.4-11.9c1.5-5.2,2.8-10.6,3.2-16
	c0.4-6-0.4-12-1.7-17.9c-0.1-0.6-0.3-1.3-0.4-1.9c-1.7-9.7-5.3-19.8-12.1-29.4c-0.5-0.8-1-1.5-1.4-2.3c-0.2-0.3-0.4-0.4-0.6-0.5
	c-2.2-2.9-4.7-5.7-7.6-8.4c0,0-10.4-9.4-16.1,0c0,0,0,0.3,0,0.8c-0.3,0.2-0.5,0.6-0.5,1c0,0.2,0,0.4,0,0.7c0,0.2-0.1,0.3-0.1,0.5
	c0,0.1-0.1,0.2-0.1,0.2c0,0,0,0.1,0,0.1c-0.1,0.2-0.2,0.4-0.3,0.5c0,0,0,0,0,0c-0.1,0.1-0.1,0.2-0.2,0.2c-0.1,0.1-0.1,0.1-0.2,0.2
	c0,0-0.1,0.1-0.1,0.1c0,0,0,0,0,0c-0.1,0-0.1,0.1-0.1,0.1c-0.1,0.1-0.2,0.1-0.3,0.2c-0.1,0-0.1,0.1-0.2,0.1c0,0-0.1,0-0.1,0
	c-0.2,0.1-0.4,0.1-0.6,0.1c-0.3,0-0.6,0.1-0.8,0.4c-0.1,0.1-0.2,0.3-0.3,0.5c-2,0.1-5-1.1-9.4-4.5c-14.1-10.8-37,9.7-37,9.7
	s-16.1,14.8,16.7,34.8c0,0,15.9,20.9-7.9,25.3c0,0-43.7-8.7-15.5,17.1c0,0,22.5,16.1-0.3,31.9c0,0-15.6,15.6-0.1,22.7
	c0.1,0.4,0.3,0.8,0.9,0.9c0.8,0.2,1.5,0.2,2.3,0.3c0.3,0.1,0.6,0.2,0.9,0.3c0,0,4,1.3,14.5-6.7c0,0,1.4-2.5,4.3-3.4
	c0.8,0,1.5,0,2.3,0.2c0.4,0.1,0.7,0,1-0.2v1.7c-0.1,0.4-0.2,0.8-0.3,1.1c-0.3,0.1-0.6,0.4-0.7,0.7c-1.3,0.4-2.6,1-4,2
	c0,0-4,4.5,0.9,9.4c0,0-14.1,6.5-21.5,17.9c-7.4,11.4-7.2,16.8-3.8,31.3c0,0,8-10.5,11.2-9.8c0,0,9.2-1.1,14.1,1.3
	c0,0,4.3,4,17.3,2.7l0,0c0.2,9.6-2,21.3-9.9,33.2c-6.5,9.9-5.5,34.2,4.3,44.1c2.3,3.1,6.2,4.2,9.9,4.5c4.8,0.4,9.9-0.4,14.2-2.6
	c7.8-4.1,12.4-12.4,15.2-20.4c2.2-6.2,3.6-13.2,2.9-19.9c-0.4-5.8-1.9-10.7-3.8-13.6c-2.9-4.4-4.2-6.4-5-12.3c0-0.3-0.1-0.6-0.1-1
	c-0.2-1.8-0.4-3.9-0.5-6.5l-1-8.3c0-0.1,0-0.3,0-0.4c0.6,0.4,1.2,0.7,1.8,1c0.1,0.1,0.2,0.1,0.3,0.2c0.2,0.5,0.5,1,0.9,1.5
	c0.4,0.6,1.4,0.5,1.8,0c0.2-0.2,0.3-0.4,0.3-0.6c0.6,0,1.2-0.1,1.9-0.4c0,0,0,0,0,0c0.1-0.1,0.3-0.1,0.4-0.2c0.1,0,0.2-0.1,0.2-0.1
	c0.4,0.3,1.2,0.4,1.2,0.4c0,0,0,0,0,0c1.4,1.7,3.3,0,3.3,0c0.5-0.1,0.9-0.2,1.3-0.5c1.3,0.1,2.2,1.6,2.2,1.6c0.8-0.2,1.4,0,2,0.5
	c-0.1,0.4,0.1,0.9,0.4,1.1c0.3,0.3,0.6,0.4,0.9,0.4c0.4,0.6,0.7,1.3,1.1,2c0,0.1,0,0.2,0,0.2c0.1,1.2,0.2,2.4,0.2,3.7
	c0,0.7,0.6,1.3,1.3,1.3c0.1,0,0.1,0,0.2,0c0,3.6-1,9.2-1,9.2c1.2-3,6.8-3.8,6.8-3.8c3,2.4-1.2,11.5-1.2,11.5
	c-4.9,6.7-7.1,11.3-8.1,14c-0.1,0.2-0.2,0.3-0.3,0.5c0,0.1,0,0.3,0,0.4c-0.5,1.5-0.5,2.3-0.5,2.3c0.2-0.5,0.7-0.8,1.4-1.1
	c0,0,0,0,0.1,0c0.1,0,0.2,0,0.3,0c0.2,0,0.5-0.1,0.7-0.2c0,0,0,0,0.1,0c0.6-0.2,1.2-0.4,1.8-0.5c0.8-0.1,1.4-0.1,1.4-0.1
	c-2.1,9.1-14.2,24.2-14.2,24.2c-17.5,19.6-21.8,30.2-22.8,35c0,0,0,0,0,0c-0.2,0.2-0.4,0.6-0.4,0.9c0,0.2,0.1,0.4,0.2,0.6
	c-0.1,1.3,0.1,1.8,0.1,1.8c0.3-0.6,0.9-0.9,1.6-1.2c0.7-0.1,1.4-0.1,2.2-0.2c0.2,0,0.4-0.1,0.5-0.1c0.3,0,0.4,0,0.4,0
	c-12.2,16.1-15.4,27.4-16.2,32.3c-0.3,0.2-0.5,0.6-0.5,1c-0.6-4.5-2.2-9.5-5-15.1c0,0-3.7-10.8-23.2-9.7
	C250.6,396.3,251,353,202.2,359.4z"/>
<g>
	<path class="st1" d="M0,0v1000h1000V0H0z M867.9,255.3c0,0-10.2-51.2-60.7-72.8c-50.2-21.4-87-30.2-128.8,8.1l-0.3,0.5
		c5-1,75.3-13.4,120.6,37.1c46.9,52.3,54,81.3,43.1,156.7c0,0-3.5-85.8-49-126.8c-45.5-41-109.8-28.3-109.8-28.3
		S794.7,241,803.5,330.3c0,0-51.1-93.9-136.1-59.8c0,0,0,0,0.1-0.1c-0.2,0.1-0.4,0.3-0.7,0.5c-0.6,1-1.2,1.9-1.9,2.8
		c-2,2.4-4.5,4.2-7.4,5.4c-3,3.4-5.6,7.4-7.3,12.1c0,0,89-45.6,118.7,49.5c0.1,0.2,0.3,0.4,0.5,0.5c0.4,0.5,0.4,1,0.2,1.5
		c0.3,1.2,0.7,2.4,1,3.6c0,0-0.9-1.1-2.4-2.8c-0.2-0.1-0.4-0.2-0.6-0.4c-0.9-1.1-1.8-2.1-2.7-3.2c-6-6.3-16.4-16.1-29.1-23.9
		c-6.4-3.7-13-6.9-20-9.3c-0.8-0.3-1.7-0.6-2.5-0.9c-4.6-1.3-9.3-2.1-14.1-2.3c0,0-0.1,0-0.1,0c-5.7,0.2-11.4,2-16.9,3.6
		c-5.2,1.5-10.3,3.3-15.1,5.8c-8.6,5.8-17,14.6-25,27.3c-0.6,1.5-1.2,3-1.6,4.5c12-5.6,94-39.6,145.5,53c0,0,26.6,45.1,0,144
		c0,0,5.1-21.3,4.5-49.5c-0.1-0.2-0.2-0.4-0.2-0.6c0-6.4-0.5-12.7-1.3-19c-0.4-3.1-0.8-6.2-1.3-9.2c-4.9-28.1-17.2-58.1-45.1-79.2
		c-20.8-15.7-38.5-20.8-53.2-20.3c-0.8,0-1.7,0.1-2.5,0.1c-15.7,1.2-27.7,8.9-35.9,16.4c-0.1,0.1-0.2,0.2-0.3,0.3
		c-2.8,3.1-5.6,6.2-8.5,9.2c-2.8,3.6-4.2,6-4.2,6s47.1-27.7,81-1.3c0.2,0,0.3,0,0.5,0.1c0.8,0.1,1.2,0.7,1.2,1.3
		c1.3,1.1,2.6,2.3,3.9,3.6c0,0-8.6-2.1-19.6-2.4c-1,0.1-2,0.2-3.1,0.3c-5,0.6-10.1,1.3-15,2.3c-4.4,0.9-8.7,2.2-12.6,4.5
		c-6.7,4-11.8,10.6-14.2,18c6.7-1.6,75.6-16.1,93.2,67.7c0.2,0.4,0.5,0.8,0.7,1.2c0.3,0.6,0.2,1.1-0.2,1.5c0.3,1.7,0.7,3.5,0.9,5.4
		c0,0-0.9-2-2.6-5.1c-0.1-0.1-0.3-0.2-0.4-0.4c-3.5-5.9-7.5-11.6-11.9-16.9c-4-4.7-8.3-9.1-12.9-13.2c-3.4-3-7-6-10.8-8.5
		c-3.9-2.4-8.1-4.4-12.6-6c-3.6-1.1-7.3-1.8-11-2.4c-0.8-0.1-1.5-0.2-2.3-0.3l-17.1-0.2c9.3,3,69.5,24.5,75.1,88.7
		c0,0.1,0.1,0.2,0.1,0.2c0.2,0.4,0.1,0.8,0,1.1c0.1,1.2,0.2,2.3,0.2,3.5c0,0-0.5-1-1.4-2.6c-0.4,0-0.8-0.1-1.1-0.7
		c-1.1-2.5-2.3-4.9-3.6-7.3c-2.5-4-5.7-8.8-9.5-13.9c-4.4-5.4-9.2-10.4-14.3-15.2c-5.4-5.1-10.9-10.2-16.7-14.8
		c-10.7-8.5-24-13.2-37.5-13.6c-1.4,0-2.8,0.1-4.2,0.2c0,0,42.1,16.9,49.7,68.8c0.6,0.9,1.2,1.8,1.8,2.8c0.6,1-0.3,1.9-1.2,1.9
		c0.2,1.8,0.3,3.7,0.4,5.6c0,0-6-12.3-16.7-25.4c-3.8-4.2-7.6-8.4-11.6-12.4c-12.8-11.7-29.4-21-48.9-18.4c0,0,46,25.5,37.8,84.8
		c0.3,1.2,0.6,2.4,0.9,3.6c0.3,1.1-0.9,1.8-1.7,1.6c-0.2,0.9-0.3,1.8-0.5,2.7c0,0-10-48.8-32.7-68.6c-0.2-0.1-0.3-0.2-0.5-0.4
		c-3.7-2.5-7.6-4.7-11.6-6.7c-1.3-0.4-2.6-0.7-4-0.9c6.9,18.9,10.6,41.7,7.2,68.1c-0.1,3.4-0.5,6.8-1.2,10.2
		c-0.2,0.8-0.4,1.7-0.6,2.5c-1.3,7.5-4.7,21.2-13.6,37.1c0,0-7.5,16.5,0,39.6c0,0,6.3,6.3,1.7,13.9c-0.2,0.6-0.5,1.2-0.9,1.8
		c-0.2,0.4-0.6,0.6-1,0.6c-1.7,1.9-4.1,3.8-7.5,5.6l-42.8,21.7l0,0c0,0,0,0,0,0s-1.9,0.5-3.9,0.9c0.5,2.5,0.9,7.4-2.1,13.8
		c-0.6,1.6-1.4,3-2.4,4.4c-1,1.5-2.1,2.9-3.2,4.4c-0.7,1-1.3,2-2.2,2.8c-0.4,0.7-1.2,1.5-2.5,1.6c-0.4,0.1-0.8,0-1.2-0.1
		c-0.8-0.1-1.8-0.4-2.9-1c0,0-0.1,1.3-0.7,2.5c1,3.3,1.9,13.6-8.4,42.3c-7.9,21.9-5.1,42-1.4,54.8c0.7,2.3,1.5,4.6,2.2,6.8
		c1,2.8,2,4.9,2.6,6.2c33-7.6,28.8,6.3,28.8,6.3c0.1,0.3,0.2,0.6,0.3,0.9c0,0,0,0,0,0c0-0.6,0.1-4.3-1.2-5.7c0,0,7.3-3.6,15.1,6.8
		c0,0-8.8-2.6-13.8-1.1c1.2,0.4,1.1,2.3-0.2,2.5c-0.1,0.2-0.2,0.4-0.2,0.4c17.6-1.2,35.8-5.3,45.7,9c0,0,0.1,0.3,0.3,0.9
		c0.4,0.1,18.7,2.4,15,19.3c0,0-6.4-9.9-15.4-8.2c-0.1,0.1-0.2,0.1-0.2,0.2c-1.4,2.2-4.1,3.8-9,3.5c-0.2,0-0.5,0-0.7,0
		c-0.6,0-1.2,0-1.7,0c-2,0-3.9-0.4-5.8-0.8c-7.2-1.1-11.4-2.9-13.6-4.3c0,0,0,0,0,0l0,0c-0.6-0.4-1.1-0.7-1.5-1
		c-0.2-0.1-0.4-0.3-0.6-0.4c-2.3-0.8-4.7-1.6-7.1-2.3c-1.4-0.3-3-0.7-4.8-1c0,0,0,0,0,0l0,0c-16-3-46.3-5.1-78.2,12.3
		c0,0-3.7,1.8-9.2,5.6v0c0,0,0,0-0.1,0c-3.2,2.2-6.9,5.2-10.9,8.8v0c0,0,0,0,0,0c-5.4,5-11.3,11.4-16.7,19.3c0,0-6.7,17.2-29.4,11
		l-0.2-0.3c-7.7,2.3-13.5,13.5-13.5,13.5c-1.6-8.8,2.4-16.5,6.2-21.6l-0.6-0.6c0,0-1.4-9.1,1.9-11c0,0,0,0,0,0
		c-0.2,0-20.8,2-24.3-6.9c0,0-0.3-0.4-0.6-1.2c-5,0.5-12.6,3.3-20.9,13.6c0,0,1-20.2,19.1-27c1.2-5.4,5.5-10.8,16.7-13.5l-7.3,1.1
		c-0.4,0.4-0.7,0.7-1.1,1c-0.9,0.8-1.8,1.5-2.8,2.1c-2.1,1.3-4.4,2.2-6.7,2.6c-0.8,0.2-1.7,0.3-2.6,0.3c-7.9,1.6-11.9-2.2-11.9-2.2
		l-0.5-1.4c-5-0.3-16.2,0.3-23,9.9c0,0,0-18.5,18.8-21.9c0.2-5.1,4-3.8,4-3.8c-0.2-0.4-0.4-0.7-0.5-1.1c-0.4-0.5-0.5-1.2-0.1-1.7
		c0-0.2,0.1-0.4,0.2-0.5c-6.7-1.2-16.7,3.8-16.7,3.8c1.8-11.2,13.2-12.7,18.9-12.7c2-7.8,32.4-4.9,32.4-4.9
		c6.1,1.1,11.6,1.7,16.7,1.9l46.2-13.8c34.1-30.6,23.9-96.3,23.8-96.5c-1.7,0.1-4.3-0.8-7.5-4.9c0,0-7.7,0.6-9.7-10.3
		c0-0.2-0.1-0.4-0.1-0.6c-10.9-0.7-24.6-2.2-35.9-4.9c-1.6-0.4-3-1.4-4.1-2.7c-1.3-1.5-4.9-3.3-15.4-3.1c0,0-13.9,1.4-6.5-14.4
		c0,0,2.8-29-4.4-38.2c-7.2-9.1-5.9-3.5-11.5-16.6l1.2-0.2c-0.1-0.1-0.1-0.3-0.1-0.5c-1.1-0.7-1.6-1.2-1.7-1.3l0,0
		c0,0-22.4-9.4-34.8-23.9c0,0-2.4-1.8-2.7,3.2c0,0-19.2-16.8-24.5-25.4c-0.2-0.3-0.4-0.7-0.7-1.3c-1,0.2-2.1,0.4-3.4,0.6
		c-21.8,3-24.9-10.9-24.9-10.9s-1-2.9,0-5.6c0,0-8.7,1-11.1,0.7c0,0-9.1,2-15.5-9.1c0,0-7.7,4.7-14.8-1.7c0,0-1-2-5.7,1
		c0,0-1.3,1.3-5,0.7c0,0-5.4,6.7-24.5-2.7c-19.2-9.4-24.2-33.3-23.2-46.7c0.4-4.9,1.4-13.2,4.4-22.1c-4-3.6-1.7-10.5-1.7-10.5
		c-18.5-3.7-26.2-18.8-26.2-18.8c-2.4-5-5.4-4.7-5.4-4.7c-9.4-2-32.3-17.1-34.6-38c-2.4-20.8,10.4-60.8,59.1-67.2
		c48.7-6.4,48.4,37,48.4,37c19.5-1,23.2,9.7,23.2,9.7c2.8,5.6,4.4,10.6,5,15.1c0-0.4,0.2-0.8,0.5-1c0.8-4.9,4-16.2,16.2-32.3
		c0,0-0.2,0-0.4,0c-0.2,0.1-0.3,0.1-0.5,0.1c-0.7,0.1-1.4,0.1-2.2,0.2c-0.7,0.2-1.3,0.6-1.6,1.2c0,0-0.2-0.6-0.1-1.8
		c-0.1-0.2-0.1-0.4-0.2-0.6c0-0.3,0.2-0.7,0.4-0.9c0,0,0,0,0,0c1-4.8,5.4-15.4,22.8-35c0,0,12.1-15.1,14.2-24.2c0,0-0.6,0-1.4,0.1
		c-0.6,0.1-1.2,0.3-1.8,0.5c0,0,0,0-0.1,0c-0.2,0.1-0.4,0.2-0.7,0.2c-0.1,0-0.2,0-0.3,0c0,0,0,0-0.1,0c-0.6,0.3-1.1,0.6-1.4,1.1
		c0,0,0-0.7,0.5-2.3c0-0.1,0-0.3,0-0.4c0-0.2,0.1-0.3,0.3-0.5c1-2.7,3.2-7.2,8.1-14c0,0,4.1-9.1,1.2-11.5c0,0-5.6,0.9-6.8,3.8
		c0,0,1-5.6,1-9.2c-0.1,0-0.1,0-0.2,0c-0.7,0-1.3-0.6-1.3-1.3c0-1.2,0-2.4-0.2-3.7c0-0.1,0-0.2,0-0.2c-0.3-0.7-0.7-1.4-1.1-2
		c-0.3,0-0.6-0.1-0.9-0.4c-0.3-0.3-0.4-0.7-0.4-1.1c-0.6-0.5-1.3-0.7-2-0.5c0,0-0.8-1.6-2.2-1.6c-0.4,0.2-0.8,0.4-1.3,0.5
		c0,0-1.9,1.7-3.3,0c0,0,0,0,0,0c0,0-0.7,0-1.2-0.4c-0.1,0-0.2,0.1-0.2,0.1c-0.1,0.1-0.3,0.1-0.4,0.2c0,0,0,0,0,0
		c-0.7,0.3-1.3,0.4-1.9,0.4c0,0.2-0.2,0.4-0.3,0.6c-0.5,0.5-1.4,0.6-1.8,0c-0.4-0.5-0.7-1-0.9-1.5c-0.1-0.1-0.2-0.1-0.3-0.2
		c-0.5-0.2-1.1-0.6-1.8-1c0,0.1,0,0.3,0,0.4l1,8.3c0.1,2.6,0.3,4.7,0.5,6.5c0,0.3,0.1,0.6,0.1,1c0.8,6,2.1,7.9,5,12.3
		c1.9,3,3.5,7.8,3.8,13.6c0.7,6.7-0.7,13.7-2.9,19.9c-2.8,8-7.4,16.4-15.2,20.4c-4.3,2.2-9.4,3-14.2,2.6c-3.7-0.3-7.7-1.4-9.9-4.5
		c-9.9-9.9-10.9-34.2-4.3-44.1c7.8-11.9,10.1-23.6,9.9-33.2l0,0c-12.9,1.3-17.3-2.7-17.3-2.7c-4.9-2.5-14.1-1.3-14.1-1.3
		c-3.2-0.7-11.2,9.8-11.2,9.8c-3.4-14.6-3.6-19.9,3.8-31.3c7.4-11.4,21.5-17.9,21.5-17.9c-4.9-4.9-0.9-9.4-0.9-9.4
		c1.3-1,2.7-1.6,4-2c0.1-0.3,0.3-0.6,0.7-0.7c0.1-0.3,0.2-0.7,0.3-1.1v-1.7c-0.3,0.2-0.6,0.3-1,0.2c-0.7-0.1-1.5-0.2-2.3-0.2
		c-2.8,1-4.3,3.4-4.3,3.4c-10.4,8.1-14.5,6.7-14.5,6.7c-0.3-0.1-0.6-0.2-0.9-0.3c-0.8,0-1.5-0.1-2.3-0.3c-0.6-0.1-0.9-0.5-0.9-0.9
		c-15.5-7.1,0.1-22.7,0.1-22.7c22.9-15.8,0.3-31.9,0.3-31.9c-28.2-25.9,15.5-17.1,15.5-17.1c23.9-4.4,7.9-25.3,7.9-25.3
		c-32.8-20.1-16.7-34.8-16.7-34.8s22.9-20.5,37-9.7c4.4,3.4,7.4,4.5,9.4,4.5c0.1-0.2,0.2-0.4,0.3-0.5c0.2-0.2,0.5-0.3,0.8-0.4
		c0.2,0,0.4-0.1,0.6-0.1c0,0,0.1,0,0.1,0c0.1,0,0.1-0.1,0.2-0.1c0.1-0.1,0.2-0.1,0.3-0.2c0,0,0.1-0.1,0.1-0.1c0,0,0,0,0,0
		c0,0,0.1-0.1,0.1-0.1c0.1-0.1,0.2-0.1,0.2-0.2c0.1-0.1,0.2-0.2,0.2-0.2c0,0,0,0,0,0c0.1-0.2,0.2-0.3,0.3-0.5c0,0,0,0,0-0.1
		c0-0.1,0.1-0.2,0.1-0.2c0-0.2,0.1-0.3,0.1-0.5c0-0.2,0-0.4,0-0.7c0-0.4,0.2-0.8,0.5-1c0-0.5,0-0.8,0-0.8c5.7-9.4,16.1,0,16.1,0
		c2.8,2.7,5.3,5.5,7.6,8.4c0.2,0.1,0.5,0.3,0.6,0.5c0.5,0.8,1,1.5,1.4,2.3c6.8,9.6,10.4,19.8,12.1,29.4c0.1,0.6,0.3,1.3,0.4,1.9
		c1.2,5.9,2.1,11.9,1.7,17.9c-0.4,5.5-1.7,10.8-3.2,16c-1.4,6.6-3.1,11-3.4,11.9c0.7-0.2,1.4-0.4,2.1-0.6c2.8-1.3,7.7-3.5,12.3-4.4
		c0.9-0.2,1.8-0.4,2.7-0.5c0.2,0,0.4,0,0.6,0.1c1.8-0.1,3.4,0.2,4.7,0.9c0,0-1,0.6-2.3,1.4c-0.1,0.2-0.2,0.4-0.5,0.5
		c-1.2,0.8-2.2,1.7-3.1,2.8c-0.3,0.4-0.5,0.8-0.8,1.2c1.1,0.2,2.2,0.4,3.3,0.6c8.2,0.3,25.6,1.8,30.9,9.6c0,0-0.3,0-0.9,0
		c-0.1,0.8-1,1.6-1.9,1.1c-0.7-0.4-1.4-0.7-2-1.1c-4.1,0.1-9.4,0.5-9.6,2.1c0,0,28.4,3.7,38.5,35.5c0.2,0.6,0.5,1.3,0.7,1.9
		c0.1,0.3,0.1,0.5,0.1,0.7c0.1,0.5,0.3,1,0.4,1.6c0,0-6.4-1.7-6.7,0c0,0,7.3,5.1,10.4,23.2c0.5,1.8,0.9,3.7,1.2,5.6
		c0.5,3.1,0.8,6.2,0.9,9.3c0.1,3,0,6.1-0.9,9c-0.1,1.2-0.1,2.4-0.2,3.6l-1.6-2.2c-0.5-0.1-1-0.6-0.9-1.2l-1.8-2.4c0,0,1.7,17,0,27
		c-0.1,1.4-0.2,2.8-0.5,4.2c-0.3,1.6-2.8,0.9-2.5-0.7c0-0.2,0.1-0.4,0.1-0.6c-1.6-1.6-3.8-3.5-4.5-2c0,0,0.2,6.6-0.1,14.6
		c0,1.3-0.1,2.6-0.2,4c-0.5,8.4-1.6,17.5-4.1,22.2c-0.2,1-0.4,2.1-0.5,3.1c-0.2,1.5-0.3,2.9-0.4,4.4c0,1.5,0,3.1-0.2,4.6
		c0,0.9,0,1.9,0.1,2.8c0,0.7-0.5,1.2-1,1.2c-0.1,0.2-0.2,0.3-0.3,0.5c0,0-0.2-0.2-0.5-0.6c-0.3-0.1-0.6-0.4-0.7-0.7
		c-0.9-0.8-2.2-1.6-3.1-1.1l-2,26.5c0,0-0.3,2.4,0.5,5.6c0.4,0.1,0.8,0.4,0.9,0.9c0.4,1.2,0.7,2.5,0.9,3.8c2.7,5,8.5,10.1,20.9,11.2
		c0,0,0.1,0,0.2-0.1c0-0.6,0.4-1.3,1.3-1.2c1,0,2.1,0,3.1-0.1c7-2.1,20.4-5.8,27.4-6.6c0.1,0,0.2-0.1,0.3-0.1c0.2,0,0.3,0,0.5,0
		c1-0.1,1.9-0.1,2.5,0c0,0-3.3,4-2.7,5c0,0,49.7-2.7,56.8,4.7c0,0-8.4,4.7-6.1,5c0,0,0.6,0,1.6,0.1c0.2-0.1,0.3-0.1,0.6-0.1
		c5.9,0.1,11.8,0.5,17.6,1.2c13.2,1.1,28.4,3,29.7,6.2c0,0-0.6,0.1-1.5,0.3c0,0.8-0.6,1.6-1.6,1.3c-0.6-0.2-1.2-0.3-1.7-0.4
		c-2.9,0.9-5.9,2.1-5,3.2c0,0,16.1,0,21.9,3.9c0,0,0,0,0,0c0.2,0.1,0.4,0.2,0.5,0.3c0.3,0.3,0.6,0.5,0.8,0.8l0.1,0
		c0,0-0.1,0-0.1-0.1c0,0,15.3-2,21.6,10.2c0,0,0,0,0,0l3.9,1.8c0,0,12.4-37-5.4-60.5c-17.8-23.5-39-81.7-37.6-112.9
		c0,0,4-10.8,2.7-68.9c0,0-5.3-64.3,30.2-91.4c0,0-1.9,3-4.4,8.5c-3.1,6.7-5.7,13.7-7.9,20.7c-6,19.6-10.8,47.8-4.6,80.3
		c0.1,0.3,0.3,0.6,0.4,0.8c0.1,0.1,0.1,0.2,0.2,0.3c0.1-0.1,0.2-0.2,0.4-0.3c-0.9-23.1-1.2-121.9,56.6-143.4c1.2-0.9,2.5-1.6,4-1.8
		c0.3-0.1,0.7,0,0.9,0.2c1.4-0.4,2.8-0.7,4.2-1c0,0-54.3,47.4-50,121.9c0.1,1,0.3,2,0.4,3.1c2.3-10.8,31.3-137.3,96.3-136
		c0,0-1,0.5-2.7,1.4c0.3,0.6,0.1,1.6-0.8,1.9c-3.6,1.4-7.1,3.2-10.3,5.3c-17.7,12.9-46.6,41.1-49.5,89c0,1.1,0.1,2.1,0.2,3.2
		l0.3-0.3c5.4-13,44.2-101.1,101.4-100.6c0,0-67.2,33.6-80.2,98.8l0,0c0.5-1,40.8-76.3,114.4-69.5c0,0-68.1,18.2-82.9,56.3
		c0,0,51.4-38.6,77.1-40.9c25.7-2.4,57.3-2.1,93.3,46.9c0,0-39.4-30.4-66-29.2c-26.6,1.2-52.6,13.9-52.6,13.9S787,122.6,836.7,175
		C836.7,175,869.8,210.5,867.9,255.3z"/>
</g>
</svg>
