<!-- Generator: Adobe Illustrator 25.0.0, SVG Export Plug-In  -->
<svg version="1.1" xmlns="http://www.w3.org/2000/svg" xmlns:xlink="http://www.w3.org/1999/xlink" x="0px" y="0px" width="2561px"
	 height="1445.3px" viewBox="0 0 2561 1445.3" style="overflow:visible;enable-background:new 0 0 2561 1445.3;"
	 xml:space="preserve">
<style type="text/css">
	.st0{fill:#64A61E;stroke:#4E801A;stroke-miterlimit:10;}
	.st1{fill:#4D7E1B;}
	.st2{fill:#4E801A;}
	.st3{fill:#35630B;}
	.st4{fill:#95CF3B;}
	.st5{fill:#80B629;}
	.st6{fill:#3F7011;}
	.st7{fill:#E5D20C;}
	.st8{fill:#64A61E;}
	.st9{fill:#84DFF4;}
</style>
<defs>
</defs>
<path class="st0" d="M2560.5,1183.3l-545.2-149.4c0,0-140.3-54.8-437.4-59.8s-659,94.6-659,94.6s-161,63.1-512.9,71.4
	s244,304.4,244,304.4h1910.5V1183.3z"/>
<path class="st1" d="M952.2,1233.1c0-5,31.5,8.3,288.8-84.7s602.5-58.1,602.5-58.1s27.8,8.3-34.2,24.9
	c-62.1,16.6-35.5,26.6-35.5,26.6s378.4-49.7,786.7,43.2v259.5H870.6L952.2,1233.1z"/>
<path class="st2" d="M0.5,1035.7c0,0,335.2,66.6,349.2,91.3c14.1,24.8,216.9,57.3,216.9,57.3s450.6,56,481.6,79.9
	c0,0,602.7,158.6,625.8,180.3H0.5V1035.7z"/>
<path class="st3" d="M0.5,1240.1c0,0,612.6,57.3,654.4,88.2c0,0,179.6,38.7,21.7,60.4c-157.9,21.7,38.7,20.1,38.7,20.1
	s162.6,10.9,207.5,35.7H0.5V1240.1z"/>
<g id="CLAROS_2_">
	<path class="st4" d="M2022.4,1037.1c0,0-266.2-72.1-594.7-45.7s-532.4,107.3-532.4,107.3s-232.1,60.2-434.3,56.3
		c-137.8-2.7-66.8-14.1-66.8-14.1s311.7-2.8,491.4-61.9s475.1-93.3,475.1-93.3S1715,937.2,2022.4,1037.1z"/>
	<path class="st4" d="M0.5,1023.3c0,0,228.6,31,381.9,105.3c0,0,61.9,29.4,300.4,65c0,0,291.1,32.5,346.8,55.7
		c0,0,412.3,102.2,644.3,190.4c0,0-571.6-156.4-610.3-167.2c0,0-188.9-46.4-233.8-41c0,0-399-42.4-454.8-79.5
		c0,0-129-54.4-158.4-52.8c0,0-148.6-46.4-216.8-52.7L0.5,1023.3z"/>
</g>
<g id="HOJITAS_2_">
	<path class="st5" d="M2029.9,1310.1c0,0,20.5-12.8,17-24.4C2043.5,1274.1,2026.1,1300.1,2029.9,1310.1z"/>
	<path class="st5" d="M2019.5,1310.1c0,0-15.5-24-7.3-32.1S2023.7,1297.4,2019.5,1310.1z"/>
	<path class="st5" d="M2009.8,1310.1c0,0-28.2-6.5-22.8-16.8C1992.4,1283,2004.7,1297,2009.8,1310.1z"/>
	<path class="st5" d="M1995.9,1312.9c0,0-27.5,5-25.2-6.2C1973,1295.4,1993.9,1309,1995.9,1312.9z"/>
	<path class="st5" d="M1427.7,1276.5c0,0,24.3-3.2,27.8-24.1S1422,1265.8,1427.7,1276.5z"/>
	<path class="st5" d="M1392.8,1269.9c0,0-15.1-19.1-15.1-24.1C1377.7,1240.9,1396.2,1253.6,1392.8,1269.9z"/>
	<path class="st5" d="M1405.5,1269.9c0,0-15.1-20.9,0-39.5C1420.6,1211.8,1417.1,1260.3,1405.5,1269.9z"/>
	<path class="st5" d="M1415.6,1269.9c0,0-4.1-20.1,11.5-29.8C1442.7,1230.4,1438.4,1269.9,1415.6,1269.9z"/>
	<path class="st5" d="M952.6,1339.6c0,0,29-30.2,15.1-58.1S932.9,1354.7,952.6,1339.6z"/>
	<path class="st5" d="M939.9,1341.1c0,0-21.1-21.5-16.9-32.2S944.5,1328.7,939.9,1341.1z"/>
	<path class="st5" d="M606.6,1323.9c0,0,10.5,10,29-15S596.1,1313.8,606.6,1323.9z"/>
	<path class="st5" d="M589.1,1317.5c0,0-10.5-10.4,9.3-23.2C618.2,1281.5,599.6,1317.5,589.1,1317.5z"/>
	<path class="st5" d="M571.7,1323.9c0,0-26.5-48.2-11.5-54C575.2,1264.1,583.3,1312.8,571.7,1323.9z"/>
	<path class="st5" d="M560.2,1323.9c0,0-33.8-9.1-29.2-19.3C535.7,1294.3,559.2,1310.5,560.2,1323.9z"/>
	<path class="st5" d="M225.7,1336.1c0,0,19.7-32.9,4.6-52.3S212.9,1327.9,225.7,1336.1z"/>
	<path class="st5" d="M217.4,1341.1c0,0-34.7-10.8-28.9-23.6C194.3,1304.7,221.9,1328.7,217.4,1341.1z"/>
	<path class="st5" d="M132.8,1174.7c0,0-41-37.2-54.2-16.3s27.1,10.4,27.1,10.4L132.8,1174.7z"/>
	<path class="st5" d="M140.9,1174.7c0,0-36-35.6-27.9-44.5C121.2,1121.2,147.9,1154.9,140.9,1174.7z"/>
	<path class="st5" d="M160.6,1163.3c0,0-29-54.9-13.9-61.8C161.8,1094.5,167.6,1153.2,160.6,1163.3z"/>
	<path class="st5" d="M178.1,1163.3c0,0-8.4-38.8,24.8-34.7s-12.9,17.2-12.9,17.2L178.1,1163.3z"/>
	<path class="st5" d="M1058.3,1110.8c0,0,23.2-23.2,13.9-34.8S1058.3,1110.8,1058.3,1110.8z"/>
	<path class="st5" d="M1040.9,1083.9c0,0,22.1,11.8,17.4,26.9C1053.7,1125.9,1040.9,1083.9,1040.9,1083.9z"/>
	<path class="st5" d="M1505.4,1074.1c0,0-26.7-5.1-23.2-16.7C1485.7,1045.8,1505.4,1074.1,1505.4,1074.1z"/>
	<path class="st5" d="M1524,1074.1c0,0,10.4-25.8,19.7-19.5S1524,1074.1,1524,1074.1z"/>
	<path class="st5" d="M1517,1069c0,0-1.2-17.4,7-20.9S1528.6,1063.9,1517,1069z"/>
	<path class="st5" d="M1508.5,1069c0,0-25.6-29.5-9.9-33.3C1514.2,1031.9,1508.5,1069,1508.5,1069z"/>
	<path class="st5" d="M1964.4,1018.6c0,0-12.8-8.8-7.2-13.6C1962.8,1000.2,1964.7,1016.6,1964.4,1018.6z"/>
	<path class="st5" d="M1968,1018.6c0,0,4.3-33.9,18.6-29.1S1976.9,1019.9,1968,1018.6z"/>
	<path class="st5" d="M743.9,1110.5c0,0,12.9-15.7-2.6-24.8C725.7,1076.7,735.3,1114.6,743.9,1110.5z"/>
	<path class="st5" d="M727.5,1113.2c0,0-19.1-4.5-13.1-12.3C720.5,1093.1,727.5,1113.2,727.5,1113.2z"/>
</g>
<g id="PLANTASDELANTERAS_2_">
	<path class="st6" d="M78.6,1294.3c0,0,64.6,41.8,99,151l48.5-1C226.1,1444.3,195,1313.1,78.6,1294.3z"/>
	<path class="st6" d="M254.4,1445.3c0,0-8.1-191.1,137.5-247.8c0,0-75.8,59.7-78.9,247.8H254.4z"/>
	<path class="st6" d="M329.2,1443.3c0-3,22.2-87,48.5-97.1c0,0,52.6-41.5,92-38.4c0,0-134.5-43.5-192.1,136.5L329.2,1443.3z"/>
	<path class="st6" d="M2126.7,1142.9c0,0,148.2,70.8,145.2,138.5c-3,67.8,43.5,161.8,43.5,161.8l50,1.2l-44-170.1
		c0,0-17.2-63.7-60.7-82.9C2260.8,1191.5,2147.3,1139.9,2126.7,1142.9z"/>
	<path class="st3" d="M2473.1,1195.5c0,0-137.5,51.9-150.7,247.9h64.7C2387.2,1443.4,2379.1,1286.5,2473.1,1195.5z"/>
	<path class="st3" d="M2166.7,1294.3c0,0,108.2,116,102.1,149.2l46.5-0.2C2315.4,1443.3,2267.8,1333.4,2166.7,1294.3z"/>
	<path class="st3" d="M2411.4,1443.4c0,0,14.2-119.5,142.6-136.7c0,0-150.7-31-201.2,136.7H2411.4z"/>
	<g>
		<g>
			<path class="st7" d="M2384.1,930.2c0,0-26.7,7.2-18.7,19.5c0,0-19.2,9.7-10,27.2c0,0-8.6,12.8-2.5,28.2c0,0-17,11.3-12.4,27.7
				c0,0-10.8,3.1-4.1,10.8c0,0-32.8,9.2,0,32.8c0,0,9,5.6,6.8,11.8c0,0-26.8-3.6-18.6,22c0,0-8.6,10.2-2.2,16.4
				c0,0-3.4,10.2,9.9,12.8c0,0-7.4,11.3,10.9,16.4c0,0-2.2,21,22.1,20.5s13.1-23.1,13.1-23.1s22.2-4.7,19.3-10.3
				c0,0,6.3-21.5-7-26.1c0,0,4.6-9.2-2.1-13.8c0,0,28.2-11.8,2.1-24.1c0,0,5.1-11.3-4.6-16.9c0,0,8.7-5.1,3.6-8.7
				c0,0,23.1-10.8,1-19c0,0,3.6-16.4-8.7-17.4c0,0,13.3-9.7,4.1-18.5c0,0,5.7-11.8-5.6-15.4c0,0,6.1-9.2,2.1-12.8
				c0,0,26.3-7.2,7.7-21C2390.3,949.2,2391.3,930.7,2384.1,930.2z"/>
			<path class="st7" d="M2139.7,1035.8c0,0,8.7-9.2,19-3.1c0,0,12.3-1.8,12.8,7.1c0,0,15.9,4.7,17.9,11.4c0,0,10.9-4.6,11.6,0
				c0,0,15.1-18.4,20.7,5.1c0,0,13.3-2.6,14.4,10.2c0,0,29.2-7.2,31.3,17.4c0,0,15.4,1.5,11.8,16.4c0,0,17.9,4.6,7.7,23.1
				c0,0,2.1,12.3-5.6,12.8c0,0-2.6,4.5-6.1,6.6c0,0-24.6,10.2-22.6-10.8c0,0-27.7-2.5-29.2-9.2c0,0-6.1-6.2-4.6-11.8
				c0,0-13.3-4.1-9.2-8.7c0,0-10.1-1-8.4-6.2c0,0-20.8,6.2-22.9-12.3c0,0-2.6-9.7,0-11.8c0,0-15.4,1.5-14.9-8.2c0,0-19.5-1-18.4-5.1
				c0,0-9.2-7.7-7.2-15.4C2137.7,1043.4,2135.6,1035.2,2139.7,1035.8z"/>
		</g>
	</g>
	<path class="st3" d="M2386.2,927.3c0,0-50.6,212.8-33.4,392.2l-7.5,17.2C2345.3,1336.7,2329.5,1086.9,2386.2,927.3z"/>
	<path class="st3" d="M2142.4,1039.8c-2.9-1.3,172.1,36.4,200.9,270l2,26.9l-4.6,12.4l-19.3-74.8
		C2321.4,1274.4,2338.6,1128.8,2142.4,1039.8z"/>
</g>
<path class="st8" d="M2386.2,1443.4c0,0,36.3-96.7,87-119c0,0-59.7,3.9-100.2,119H2386.2z"/>
<path class="st8" d="M2343.3,1443.4c0,0,6-132.3,58.6-182.8c0,0-45.4,90-44.9,182.8H2343.3z"/>
<path class="st8" d="M2233.8,1194.4c0,0,57.4,43.9,67.3,104.3c9.9,60.4,24.8,112,24.8,112l6.4-32.7c0,0-21.8-71.9-21.8-88.2
	C2310.5,1289.8,2297.2,1229.2,2233.8,1194.4z"/>
<path class="st8" d="M2220.5,1336.7c0,0,46.5,59.3,62.6,106.7l9.1,0C2292.2,1443.4,2261,1360.3,2220.5,1336.7z"/>
<path class="st8" d="M297.4,1443.9l11.9-0.2c0,0,16.3-71.4,90.1-122.2C399.3,1321.4,340.5,1321.3,297.4,1443.9z"/>
<path class="st8" d="M331,1253.2c0,0-59.4,54.6-68.8,192.1h12.4C274.6,1445.3,294.5,1279.8,331,1253.2z"/>
<path class="st8" d="M128.6,1326.5c0,0,53.9,48.3,72.8,117.4h12.4C213.8,1443.9,187.5,1354.7,128.6,1326.5z"/>
<path class="st9" d="M2560.3,1442.7"/>
<path class="st9" d="M0.3,1442.7"/>
<path class="st9" d="M0,0"/>
<path class="st9" d="M2560,0"/>
</svg>
