<!-- Generator: Adobe Illustrator 25.0.0, SVG Export Plug-In  -->
<svg version="1.1" xmlns="http://www.w3.org/2000/svg" xmlns:xlink="http://www.w3.org/1999/xlink" x="0px" y="0px"
	 width="2560.6px" height="1440px" viewBox="0 0 2560.6 1440" style="overflow:visible;enable-background:new 0 0 2560.6 1440;"
	 xml:space="preserve">
<style type="text/css">
	.st0{fill:#045601;}
	.st1{fill:#80B629;}
	.st2{fill:#64A61E;}
	.st3{fill:#4D7E1B;}
	.st4{fill:#3F7011;}
	.st5{fill:#35630B;}
	.st6{fill:#95CF3B;}
	.st7{fill:#84DFF4;}
</style>
<defs>
</defs>
<path class="st0" d="M0.6,525.5v106.4l179.1-49.3c0,0-7.8-7.8-14.9-3.9c0,0-11.7-15.6-28.2-3.1c0,0-8.6-7.8-14.1-2.3
	c0,0-30.2-38.3-46-11c0,0-10.3-7.8-18.9,1.6c0,0-8.6-13.6-21.1-11.5c0,0,5.5-13.5-1.6-19c0,0,3.1-36-23.5-7.8
	C11.5,525.5,3.7,518.5,0.6,525.5z"/>
<path class="st1" d="M0.6,632.8c0,0,282.9-147.1,670,6.7s397.5,178,397.5,178l-1067.5-1V632.8z"/>
<path class="st2" d="M419.6,623c0,0-76.4,25.9,0,25.9s412.7,56.2,412.7,56.2s195.1,81.2,235.7,112.3H685.2L389.7,782L0.6,720.2
	v-70.4c0,0,58.2-24.2,66.9-23.3c0,0,2.5,35.4,201.3,13.8S419.6,623,419.6,623z"/>
<path class="st3" d="M507.2,731.2c0,0-25.1,33.5-63.1,32.6s-13.8,18.2,0,16.4c13.8-1.7,413.7,36.1,413.7,36.1H0.6V682.8
	C0.6,682.8,140.9,748.7,507.2,731.2z"/>
<path class="st3" d="M2560.6,552.3c0,0-229-18.2-533.6,152.2l-13.8,13.3c0,0,23.3,73.9,23.9,76.9c0.7,3,203.2,14.5,203.2,14.5
	l25.2,7.1l32.9-0.5l12.8-66.5l-67.5-30.1c0,0-1-26.6,1-29.6c2-3,128.6-13.8,128.6-13.8l187.1-43.4L2560.6,552.3L2560.6,552.3z"/>
<path class="st4" d="M2262,659.7c-0.5-1.5-88.2-10.3-53.7,49.8c0,0,35.6,37,57.7,40.4c22.1,3.5,214.3-17.7,214.3-17.7l80.2-60.6
	l-0.4-72.4c0,0-122.2,52.7-143.4,55.7C2395.6,657.8,2262,659.7,2262,659.7z"/>
<path class="st5" d="M2208.3,709.5c0,0,311.5-22.4,352.1-58.8l0.1,165.7l-319.7,0.5c0,0,5.9-33.5,40.4-37.9
	c34.5-4.4-19.2-24.9-19.2-24.9S2210.8,726.3,2208.3,709.5z"/>
<path class="st6" d="M2560.2,568.6c0,0-232.7,6.3-400.2,70.7c0,0,213.2-95.2,400.6-86.9L2560.2,568.6z"/>
<path class="st6" d="M0.6,649.8c0,0,148.6-62.5,314.5-66.2s458.3,103.2,508.2,117.7c0,0-270.8-130.6-454.8-130.5
	c0,0-190.3-17.6-367.9,61.9L0.6,649.8L0.6,649.8z"/>
<path class="st4" d="M393.5,814c0,0-1.6-6.5-17.4-6.5c0,0,4.4-11.7-16.5-15.6c0,0-1.3-18.2-22.1-16.9c0,0-9.8-14.3-31.2-4.5
	c0,0-7.8-13.7-25.4-9.1c0,0-5.9-17.6-18.2-13c0,0,7.2-25.4-22.1-13.7c0,0-7.2-9.4-14.3-3.1c0,0,10.4-24.9-14.3-23.6
	c0,0-1.3-19.5-25.4-7.2c0,0-33.2-11.1-39.7,29.3c0,0-14.3,1.1-21.5,25.3c0,0-1.9-4.7-9.8,0c0,0-4.6-44.1-25.4-41.5
	c0,0-12.5,3.9-11.5,24.1c0,0-6.8-9.8-12-2c0,0,8.5-33.2-15-25.4c0,0-3.9-13.7-15-9.8c0,0,9.7-53.3-36.2-31.2V814L393.5,814
	L393.5,814z"/>
<path class="st5" d="M152.8,795.7c0,0,26.9-59.2,44.4,0c0,0,19.4-5.2,30.4,6.5c0,0,12.4-7.2,13,0c0,0,16.3-15,24.7,0
	c0,0,13.7,3.9,9.1,11.7H0.8V700.7c0,0,23.8,1.8,20.5,38.3c0,0,12.4,4,12.4,23.5c0,0,22.8-0.7,28,22.1c0,0,33.8-24.1,37.1,7.8
	c0,0,15.6-11.7,28.6,2C127.4,794.4,150.8,787.3,152.8,795.7z"/>
<path class="st0" d="M2201.4,656.5h24.8c0,0,11.2-3.9,13.1-7.2c1.9-3.2-6.5-5.2-6.5-5.2l3.2-5.9l-5.2-3.9l5.2-5.2l-7.2-4.5l3.9-9.1
	l-6.6-2.6l3.4-16.9h-3.4l-5.7-13.7h-4.6l-3.9-8.5l-4.6,9.1l-6.1-1.3v11.6h-5v21.9h-8.5c0,0-1.3,11.4,0,15.3l-5.9-2.6
	C2182.1,627.9,2180.3,656.5,2201.4,656.5z"/>
<path class="st1" d="M2143.1,637v14.3l4.6-4.5l3.2,16.9l5.2-7.2v23.1l5.9-2.9v18.8h7.2c0,0-19.5,18.9-26,14.4c0,0-15.3-2-16.1-10.4
	c0,0-7.9-7.2-3.1-16.3l3.1-26.7l4.4,2.6l1.9-8.5l1.9,5.9l1.3-19.5L2143.1,637L2143.1,637z"/>
<path class="st6" d="M302.4,664.1c0,0-21.5-8.9-16.9-20.7l5.2-8.5l2.9,6.5l4.9-20h3.9v-15.1h3.2l4.5-13.2l7.2,16.4l2.6-3.9v18.9
	l9.1-3.1v23.9l5.9-7.2c0,0,6.5,25.9-13,25.9C302.4,664.1,302.4,664.1,302.4,664.1z"/>
<path class="st5" d="M225,612.2c0,0-22.1-2.6-20.2-22.8h5.2v-16.9h7.2l-2.3-20.2h7.5l2.6-13.8l5.2,4.1v-14.3l7.2,10.2h4.6l4.6,11.2
	l2.6-5.9v26.3l9.1-5.5v28.5l5.2-4.4c0,0,5.1,24.1-18.2,23.4H225z"/>
<path class="st7" d="M0,0"/>
<path class="st7" d="M2560,1440"/>
<path class="st7" d="M2560,0"/>
<path class="st7" d="M0,1440"/>
</svg>
