<!-- Generator: Adobe Illustrator 25.0.0, SVG Export Plug-In  -->
<svg version="1.1" xmlns="http://www.w3.org/2000/svg" xmlns:xlink="http://www.w3.org/1999/xlink" x="0px" y="0px"
	 width="2560.6px" height="1440px" viewBox="0 0 2560.6 1440" style="overflow:visible;enable-background:new 0 0 2560.6 1440;"
	 xml:space="preserve">
<style type="text/css">
	.st0{fill:#4FB8DE;}
	.st1{fill:#D6EAF2;}
	.st2{fill:#045601;}
	.st3{fill:#35630B;}
	.st4{fill:#4E801A;}
	.st5{fill:#3F7011;}
	.st6{fill:#84DFF4;}
</style>
<defs>
</defs>
<g>
	<path class="st0" d="M0.6,816.4h2560V379.8l-44.4-43.4c0,0-13.9-31-48,0l-148,145.5l-30.2-38.7c0,0-21.6-21.7-33.9-3.1l-30.1-31
		c0,0-17.9-37.2-45.8,0l-114.6,103.7c0,0-25-69.7-86-3.1l-205.1,175l-733.6-35.6L811.3,472.7c0,0-34.1-43.4-49.5-6.2
		c0,0-17.4,10.8-34.2-3.1l-44.7-52.6c0,0-17-46.5-54.2,1.5l-77.4,72.8L419.6,372L391.9,386l-40.5,26.3l-56.6-48l-40.6,9.3
		l-77.2-74.3c0,0-15.2-24.8-24.1,0C144,324,38.7,429.3,38.7,429.3L0.6,452.5L0,664.7L0.6,816.4z"/>
	<path class="st1" d="M152.5,295.4c0,0-98.3,109.2-106.8,109.9c-8.5,0.8-16.3-10.1-16.3-10.1s-16-7.7-22.5,5.4s-6.4,17.8-6.4,17.8
		v62.7l17.3-31c0,0,27.1,3.1,30.2,0.8c0,0-2.3-10.1-3.9-12.4c-1.5-2.3,20.1-0.8,20.1-0.8l0.8-24.8c0,0,73.6-11.6,82.8-24.8
		c0,0-40.3-9.3-34.8-12.4c0,0,27.9-24,32.5-41.8S152.5,295.4,152.5,295.4z"/>
	<path class="st1" d="M255.5,375.1c0,0,8.5-0.8,7.7,6.2c0,0,0.9,10.1,0,13.2c0,0,21.6,1.5,27.8-9.7c0,0,5.4-17.4,4.6-20.5
		L255.5,375.1z"/>
	<path class="st1" d="M350.7,411.5l61.2,50.3c0,0-9.3-48-16.3-50.3c0,0,14.7,6.2,16.3,3.9c0,0,5.4-17.7,0-20.8l7.7-22.5
		C419.6,372,393.3,382.1,350.7,411.5z"/>
	<path class="st1" d="M550.5,485.1l83.6,70.5c0,0,44.1-4.7,44.9-11.6l-45.7-19.3c0,0,64.3-26.3,63.5-31.7l-68.9-3.1
		c0,0,17-5.4,12.4-13.2l-21.7-10.1c0,0,37.9-19.4,37.2-22.5c0,0-7-17-8.5-19.4c0,0,21.6-32.4,24-30.1c2.4,2.2-13.9-17.1-41,15.4
		L550.5,485.1z"/>
	<path class="st1" d="M737.8,469.6l-4.7,11.6h18.6c0,0-3.1,12.4-9.3,11.6c0,0,36.4,4.6,40.3-11.6c0,0,3.9-20.9,12.4-24
		c0,0-17-17-34.8,9.3C760.3,466.5,758.7,471.1,737.8,469.6z"/>
	<path class="st1" d="M2509.9,329.5H2496v48l-43.4,24.8c0,0-10.8,3.1,0,10.1l26.2,9.3c0,0,22.5,9.3-6.1,15.5c0,0-43.4,6.2-49.6,4.6
		c0,0,21.7,13.2,14.7,20.9c0,0-19.4,13.2-23.2,7.7c0,0,29.4,2.3,21.7,9.3c0,0-160.3,61.2-170.3,58.8l54.2-58.1l148.6-144
		C2468.9,336.4,2496,310.1,2509.9,329.5z"/>
	<path class="st1" d="M1863.5,609.7l101.4,10.1l26.3-26.5l-39.7-3.7c0,0-10.6-7.7,4.9-12.4c0,0,30.2-3.1,28.7-7.7
		c-1.6-4.7-26.3-7.7-26.3-7.7l63.5-27.9c0,0,32.5-16.3,0-23.2c0,0-5.4-6.2,1.6-10.1c0,0,24-11.6,7.7-17.8s-37.2,11.6-51.1,24
		L1863.5,609.7z"/>
</g>
<path class="st2" d="M2164.3,646.6c0,0-8.9-25.8-37.6-11.1c0,0-15.8-15.6-36.1,3.2c0,0-20.3-14.8-24-0.8c0,0-27-18.3-28.2-8.6
	c0,0,5.8-16.2-17.1-9.7c0,0-27.7-52-61.2-1.5c0,0-13.1-30.6-29.8-10.3c0,0-16.7-11.1-20.3,0c0,0,0-18.4-22.1-3.7
	c0,0-8.2-12.7-24.4-11c0,0,15.2-31.4-14.3-22.2c0,0-5.5-18.1-20.3-1.7c0,0-22.1-33.1-38.7,23.9c0,0-14.7-16.9-20.3,9.9
	c0,0-14.7-21.3-18.4,0c0,0-21.3-21-37,6.2c0,0-17.9-5.7-17.9,22.2h-12.9c0,0-7.2-13.6-17.2-4.3c0,0-23.6-35.1-47.2,3.6
	c0,0,187.5,110.9,190.4,110.9c2.9,0,227.5-8.6,227.5-8.6l115.3-51.5L2164.3,646.6z"/>
<path class="st3" d="M950.8,667.8c0,0-147,61-148.6,63.3c-1.6,2.3-189.3-106.4-189.3-106.4s10.2-15.6,25-7c0,0,4.7-20.3,18.8-7.8
	c0,0,14.1-5.5,16.4,1.6c0,0,4.7-27.4,20.3-10.2c0,0,13.3-1.6,12.5,6.3c0,0,17.2-11,18,14.9c0,0,16.4-0.8,16.4,3.9
	c0,0,4.7-12.5,17.2-10.2c0,0,5.5-8.6,11-5.5c0,0,13.3-46.9,35.2,1.6c0,0,13.3-1.6,16.4,9.4c0,0,15.6,0.8,16.4,15.6
	c0,0,22.7-17.2,25.8,4.7c0,0,28.2-38.3,38.3,6.3c0,0,14.9-11.7,15.6,3.9C916.4,652.2,953.9,635.8,950.8,667.8z"/>
<path class="st4" d="M808.4,700.8c0,0,359.3-99.3,559.5-100.9s485.4,100.9,485.4,100.9s-420.7,24.9-425.5,24.2
	c-4.8-0.6-271.1,21.3-275.8,16.6c-4.7-4.7-171.8-34.6-171.8-34.6L808.4,700.8z"/>
<path class="st5" d="M1341.2,679.9c0,0-80.5,57.9,19.9,32.3c0,0,228.3-81.8,345.2-56.8l55.1,15.8l-9,76.8l-88.4,36.7l-95.9,9.7
	l-464.6-3.8l-179.7-59.4l-46-48.5c0,0,160.4-38.5,224-50c0,0-127.9,55.9-0.9,67.1C1100.9,699.9,1302.4,679.8,1341.2,679.9z"/>
<path class="st3" d="M1707.4,741.7c0,0-216.9,57.6-369.8,43.8c0,0-258.4-17.1-381.1-60.4c0,0-73.8-25-78.8-42.3
	c0,0-38.7,9.5-69.4,18.1l86,86.8l173.7,29.8l629.9-0.9L1707.4,741.7z"/>
<path class="st6" d="M0,0"/>
<path class="st6" d="M2560,1440"/>
<path class="st6" d="M2560,0"/>
<path class="st6" d="M0,1440"/>
</svg>
